G04 #@! TF.GenerationSoftware,KiCad,Pcbnew,(5.1.2)-1*
G04 #@! TF.CreationDate,2019-08-24T01:42:28-04:00*
G04 #@! TF.ProjectId,AAquad_PCB,41417175-6164-45f5-9043-422e6b696361,rev?*
G04 #@! TF.SameCoordinates,Original*
G04 #@! TF.FileFunction,Soldermask,Top*
G04 #@! TF.FilePolarity,Negative*
%FSLAX46Y46*%
G04 Gerber Fmt 4.6, Leading zero omitted, Abs format (unit mm)*
G04 Created by KiCad (PCBNEW (5.1.2)-1) date 2019-08-24 01:42:28*
%MOMM*%
%LPD*%
G04 APERTURE LIST*
%ADD10C,1.200000*%
%ADD11C,5.400000*%
%ADD12O,2.100000X2.100000*%
%ADD13R,2.100000X2.100000*%
%ADD14R,0.950000X1.400000*%
%ADD15R,1.400000X1.650000*%
%ADD16R,3.200000X3.400000*%
%ADD17C,0.100000*%
%ADD18C,0.990000*%
%ADD19R,1.740000X0.440000*%
%ADD20C,1.650000*%
%ADD21R,1.650000X1.400000*%
%ADD22R,0.700000X1.000000*%
%ADD23R,1.000000X0.700000*%
%ADD24C,1.375000*%
%ADD25R,1.000000X1.900000*%
%ADD26R,1.900000X1.000000*%
%ADD27R,1.400000X0.850000*%
%ADD28R,1.700000X1.900000*%
%ADD29R,1.200000X1.300000*%
%ADD30R,1.350000X2.150000*%
%ADD31R,3.600000X2.150000*%
G04 APERTURE END LIST*
D10*
X214431825Y-52522175D03*
X213106000Y-51973000D03*
X211780175Y-52522175D03*
X211231000Y-53848000D03*
X211780175Y-55173825D03*
X213106000Y-55723000D03*
X214431825Y-55173825D03*
X214981000Y-53848000D03*
D11*
X213106000Y-53848000D03*
D10*
X262437825Y-52522175D03*
X261112000Y-51973000D03*
X259786175Y-52522175D03*
X259237000Y-53848000D03*
X259786175Y-55173825D03*
X261112000Y-55723000D03*
X262437825Y-55173825D03*
X262987000Y-53848000D03*
D11*
X261112000Y-53848000D03*
D10*
X262437825Y-94178175D03*
X261112000Y-93629000D03*
X259786175Y-94178175D03*
X259237000Y-95504000D03*
X259786175Y-96829825D03*
X261112000Y-97379000D03*
X262437825Y-96829825D03*
X262987000Y-95504000D03*
D11*
X261112000Y-95504000D03*
D10*
X214431825Y-94178175D03*
X213106000Y-93629000D03*
X211780175Y-94178175D03*
X211231000Y-95504000D03*
X211780175Y-96829825D03*
X213106000Y-97379000D03*
X214431825Y-96829825D03*
X214981000Y-95504000D03*
D11*
X213106000Y-95504000D03*
D12*
X262636000Y-77216000D03*
X260096000Y-77216000D03*
X262636000Y-74676000D03*
X260096000Y-74676000D03*
X262636000Y-72136000D03*
D13*
X260096000Y-72136000D03*
D14*
X243586000Y-74281000D03*
X244836000Y-74281000D03*
X246086000Y-74281000D03*
X247336000Y-74281000D03*
X247336000Y-76281000D03*
X246086000Y-76281000D03*
X244836000Y-76281000D03*
X243586000Y-76281000D03*
D12*
X211582000Y-72136000D03*
X214122000Y-72136000D03*
X211582000Y-74676000D03*
X214122000Y-74676000D03*
X211582000Y-77216000D03*
D13*
X214122000Y-77216000D03*
D15*
X246888000Y-87122000D03*
X244888000Y-87122000D03*
D16*
X215780000Y-83058000D03*
X220980000Y-83058000D03*
D17*
G36*
X216069759Y-88129192D02*
G01*
X216093785Y-88132756D01*
X216117345Y-88138657D01*
X216140214Y-88146840D01*
X216162171Y-88157224D01*
X216183004Y-88169711D01*
X216202512Y-88184180D01*
X216220509Y-88200491D01*
X216236820Y-88218488D01*
X216251289Y-88237996D01*
X216263776Y-88258829D01*
X216274160Y-88280786D01*
X216282343Y-88303655D01*
X216288244Y-88327215D01*
X216291808Y-88351241D01*
X216293000Y-88375500D01*
X216293000Y-88870500D01*
X216291808Y-88894759D01*
X216288244Y-88918785D01*
X216282343Y-88942345D01*
X216274160Y-88965214D01*
X216263776Y-88987171D01*
X216251289Y-89008004D01*
X216236820Y-89027512D01*
X216220509Y-89045509D01*
X216202512Y-89061820D01*
X216183004Y-89076289D01*
X216162171Y-89088776D01*
X216140214Y-89099160D01*
X216117345Y-89107343D01*
X216093785Y-89113244D01*
X216069759Y-89116808D01*
X216045500Y-89118000D01*
X215500500Y-89118000D01*
X215476241Y-89116808D01*
X215452215Y-89113244D01*
X215428655Y-89107343D01*
X215405786Y-89099160D01*
X215383829Y-89088776D01*
X215362996Y-89076289D01*
X215343488Y-89061820D01*
X215325491Y-89045509D01*
X215309180Y-89027512D01*
X215294711Y-89008004D01*
X215282224Y-88987171D01*
X215271840Y-88965214D01*
X215263657Y-88942345D01*
X215257756Y-88918785D01*
X215254192Y-88894759D01*
X215253000Y-88870500D01*
X215253000Y-88375500D01*
X215254192Y-88351241D01*
X215257756Y-88327215D01*
X215263657Y-88303655D01*
X215271840Y-88280786D01*
X215282224Y-88258829D01*
X215294711Y-88237996D01*
X215309180Y-88218488D01*
X215325491Y-88200491D01*
X215343488Y-88184180D01*
X215362996Y-88169711D01*
X215383829Y-88157224D01*
X215405786Y-88146840D01*
X215428655Y-88138657D01*
X215452215Y-88132756D01*
X215476241Y-88129192D01*
X215500500Y-88128000D01*
X216045500Y-88128000D01*
X216069759Y-88129192D01*
X216069759Y-88129192D01*
G37*
D18*
X215773000Y-88623000D03*
D17*
G36*
X216069759Y-87159192D02*
G01*
X216093785Y-87162756D01*
X216117345Y-87168657D01*
X216140214Y-87176840D01*
X216162171Y-87187224D01*
X216183004Y-87199711D01*
X216202512Y-87214180D01*
X216220509Y-87230491D01*
X216236820Y-87248488D01*
X216251289Y-87267996D01*
X216263776Y-87288829D01*
X216274160Y-87310786D01*
X216282343Y-87333655D01*
X216288244Y-87357215D01*
X216291808Y-87381241D01*
X216293000Y-87405500D01*
X216293000Y-87900500D01*
X216291808Y-87924759D01*
X216288244Y-87948785D01*
X216282343Y-87972345D01*
X216274160Y-87995214D01*
X216263776Y-88017171D01*
X216251289Y-88038004D01*
X216236820Y-88057512D01*
X216220509Y-88075509D01*
X216202512Y-88091820D01*
X216183004Y-88106289D01*
X216162171Y-88118776D01*
X216140214Y-88129160D01*
X216117345Y-88137343D01*
X216093785Y-88143244D01*
X216069759Y-88146808D01*
X216045500Y-88148000D01*
X215500500Y-88148000D01*
X215476241Y-88146808D01*
X215452215Y-88143244D01*
X215428655Y-88137343D01*
X215405786Y-88129160D01*
X215383829Y-88118776D01*
X215362996Y-88106289D01*
X215343488Y-88091820D01*
X215325491Y-88075509D01*
X215309180Y-88057512D01*
X215294711Y-88038004D01*
X215282224Y-88017171D01*
X215271840Y-87995214D01*
X215263657Y-87972345D01*
X215257756Y-87948785D01*
X215254192Y-87924759D01*
X215253000Y-87900500D01*
X215253000Y-87405500D01*
X215254192Y-87381241D01*
X215257756Y-87357215D01*
X215263657Y-87333655D01*
X215271840Y-87310786D01*
X215282224Y-87288829D01*
X215294711Y-87267996D01*
X215309180Y-87248488D01*
X215325491Y-87230491D01*
X215343488Y-87214180D01*
X215362996Y-87199711D01*
X215383829Y-87187224D01*
X215405786Y-87176840D01*
X215428655Y-87168657D01*
X215452215Y-87162756D01*
X215476241Y-87159192D01*
X215500500Y-87158000D01*
X216045500Y-87158000D01*
X216069759Y-87159192D01*
X216069759Y-87159192D01*
G37*
D18*
X215773000Y-87653000D03*
D17*
G36*
X221276759Y-88129192D02*
G01*
X221300785Y-88132756D01*
X221324345Y-88138657D01*
X221347214Y-88146840D01*
X221369171Y-88157224D01*
X221390004Y-88169711D01*
X221409512Y-88184180D01*
X221427509Y-88200491D01*
X221443820Y-88218488D01*
X221458289Y-88237996D01*
X221470776Y-88258829D01*
X221481160Y-88280786D01*
X221489343Y-88303655D01*
X221495244Y-88327215D01*
X221498808Y-88351241D01*
X221500000Y-88375500D01*
X221500000Y-88870500D01*
X221498808Y-88894759D01*
X221495244Y-88918785D01*
X221489343Y-88942345D01*
X221481160Y-88965214D01*
X221470776Y-88987171D01*
X221458289Y-89008004D01*
X221443820Y-89027512D01*
X221427509Y-89045509D01*
X221409512Y-89061820D01*
X221390004Y-89076289D01*
X221369171Y-89088776D01*
X221347214Y-89099160D01*
X221324345Y-89107343D01*
X221300785Y-89113244D01*
X221276759Y-89116808D01*
X221252500Y-89118000D01*
X220707500Y-89118000D01*
X220683241Y-89116808D01*
X220659215Y-89113244D01*
X220635655Y-89107343D01*
X220612786Y-89099160D01*
X220590829Y-89088776D01*
X220569996Y-89076289D01*
X220550488Y-89061820D01*
X220532491Y-89045509D01*
X220516180Y-89027512D01*
X220501711Y-89008004D01*
X220489224Y-88987171D01*
X220478840Y-88965214D01*
X220470657Y-88942345D01*
X220464756Y-88918785D01*
X220461192Y-88894759D01*
X220460000Y-88870500D01*
X220460000Y-88375500D01*
X220461192Y-88351241D01*
X220464756Y-88327215D01*
X220470657Y-88303655D01*
X220478840Y-88280786D01*
X220489224Y-88258829D01*
X220501711Y-88237996D01*
X220516180Y-88218488D01*
X220532491Y-88200491D01*
X220550488Y-88184180D01*
X220569996Y-88169711D01*
X220590829Y-88157224D01*
X220612786Y-88146840D01*
X220635655Y-88138657D01*
X220659215Y-88132756D01*
X220683241Y-88129192D01*
X220707500Y-88128000D01*
X221252500Y-88128000D01*
X221276759Y-88129192D01*
X221276759Y-88129192D01*
G37*
D18*
X220980000Y-88623000D03*
D17*
G36*
X221276759Y-87159192D02*
G01*
X221300785Y-87162756D01*
X221324345Y-87168657D01*
X221347214Y-87176840D01*
X221369171Y-87187224D01*
X221390004Y-87199711D01*
X221409512Y-87214180D01*
X221427509Y-87230491D01*
X221443820Y-87248488D01*
X221458289Y-87267996D01*
X221470776Y-87288829D01*
X221481160Y-87310786D01*
X221489343Y-87333655D01*
X221495244Y-87357215D01*
X221498808Y-87381241D01*
X221500000Y-87405500D01*
X221500000Y-87900500D01*
X221498808Y-87924759D01*
X221495244Y-87948785D01*
X221489343Y-87972345D01*
X221481160Y-87995214D01*
X221470776Y-88017171D01*
X221458289Y-88038004D01*
X221443820Y-88057512D01*
X221427509Y-88075509D01*
X221409512Y-88091820D01*
X221390004Y-88106289D01*
X221369171Y-88118776D01*
X221347214Y-88129160D01*
X221324345Y-88137343D01*
X221300785Y-88143244D01*
X221276759Y-88146808D01*
X221252500Y-88148000D01*
X220707500Y-88148000D01*
X220683241Y-88146808D01*
X220659215Y-88143244D01*
X220635655Y-88137343D01*
X220612786Y-88129160D01*
X220590829Y-88118776D01*
X220569996Y-88106289D01*
X220550488Y-88091820D01*
X220532491Y-88075509D01*
X220516180Y-88057512D01*
X220501711Y-88038004D01*
X220489224Y-88017171D01*
X220478840Y-87995214D01*
X220470657Y-87972345D01*
X220464756Y-87948785D01*
X220461192Y-87924759D01*
X220460000Y-87900500D01*
X220460000Y-87405500D01*
X220461192Y-87381241D01*
X220464756Y-87357215D01*
X220470657Y-87333655D01*
X220478840Y-87310786D01*
X220489224Y-87288829D01*
X220501711Y-87267996D01*
X220516180Y-87248488D01*
X220532491Y-87230491D01*
X220550488Y-87214180D01*
X220569996Y-87199711D01*
X220590829Y-87187224D01*
X220612786Y-87176840D01*
X220635655Y-87168657D01*
X220659215Y-87162756D01*
X220683241Y-87159192D01*
X220707500Y-87158000D01*
X221252500Y-87158000D01*
X221276759Y-87159192D01*
X221276759Y-87159192D01*
G37*
D18*
X220980000Y-87653000D03*
D19*
X239770000Y-63915000D03*
X239770000Y-63265000D03*
X239770000Y-62615000D03*
X239770000Y-61965000D03*
X239770000Y-61315000D03*
X239770000Y-60665000D03*
X239770000Y-60015000D03*
X239770000Y-59365000D03*
X239770000Y-58715000D03*
X239770000Y-58065000D03*
X239770000Y-57415000D03*
X239770000Y-56765000D03*
X239770000Y-56115000D03*
X239770000Y-55465000D03*
X245370000Y-55465000D03*
X245370000Y-56115000D03*
X245370000Y-56765000D03*
X245370000Y-57415000D03*
X245370000Y-58065000D03*
X245370000Y-58715000D03*
X245370000Y-59365000D03*
X245370000Y-60015000D03*
X245370000Y-60665000D03*
X245370000Y-61315000D03*
X245370000Y-61965000D03*
X245370000Y-62615000D03*
X245370000Y-63265000D03*
X245370000Y-63915000D03*
D17*
G36*
X214903346Y-66490589D02*
G01*
X214935380Y-66495341D01*
X214966794Y-66503210D01*
X214997286Y-66514120D01*
X215026561Y-66527966D01*
X215054338Y-66544615D01*
X215080350Y-66563907D01*
X215104345Y-66585655D01*
X215126093Y-66609650D01*
X215145385Y-66635662D01*
X215162034Y-66663439D01*
X215175880Y-66692714D01*
X215186790Y-66723206D01*
X215194659Y-66754620D01*
X215199411Y-66786654D01*
X215201000Y-66819000D01*
X215201000Y-68309000D01*
X215199411Y-68341346D01*
X215194659Y-68373380D01*
X215186790Y-68404794D01*
X215175880Y-68435286D01*
X215162034Y-68464561D01*
X215145385Y-68492338D01*
X215126093Y-68518350D01*
X215104345Y-68542345D01*
X215080350Y-68564093D01*
X215054338Y-68583385D01*
X215026561Y-68600034D01*
X214997286Y-68613880D01*
X214966794Y-68624790D01*
X214935380Y-68632659D01*
X214903346Y-68637411D01*
X214871000Y-68639000D01*
X213881000Y-68639000D01*
X213848654Y-68637411D01*
X213816620Y-68632659D01*
X213785206Y-68624790D01*
X213754714Y-68613880D01*
X213725439Y-68600034D01*
X213697662Y-68583385D01*
X213671650Y-68564093D01*
X213647655Y-68542345D01*
X213625907Y-68518350D01*
X213606615Y-68492338D01*
X213589966Y-68464561D01*
X213576120Y-68435286D01*
X213565210Y-68404794D01*
X213557341Y-68373380D01*
X213552589Y-68341346D01*
X213551000Y-68309000D01*
X213551000Y-66819000D01*
X213552589Y-66786654D01*
X213557341Y-66754620D01*
X213565210Y-66723206D01*
X213576120Y-66692714D01*
X213589966Y-66663439D01*
X213606615Y-66635662D01*
X213625907Y-66609650D01*
X213647655Y-66585655D01*
X213671650Y-66563907D01*
X213697662Y-66544615D01*
X213725439Y-66527966D01*
X213754714Y-66514120D01*
X213785206Y-66503210D01*
X213816620Y-66495341D01*
X213848654Y-66490589D01*
X213881000Y-66489000D01*
X214871000Y-66489000D01*
X214903346Y-66490589D01*
X214903346Y-66490589D01*
G37*
D20*
X214376000Y-67564000D03*
D17*
G36*
X212103346Y-66490589D02*
G01*
X212135380Y-66495341D01*
X212166794Y-66503210D01*
X212197286Y-66514120D01*
X212226561Y-66527966D01*
X212254338Y-66544615D01*
X212280350Y-66563907D01*
X212304345Y-66585655D01*
X212326093Y-66609650D01*
X212345385Y-66635662D01*
X212362034Y-66663439D01*
X212375880Y-66692714D01*
X212386790Y-66723206D01*
X212394659Y-66754620D01*
X212399411Y-66786654D01*
X212401000Y-66819000D01*
X212401000Y-68309000D01*
X212399411Y-68341346D01*
X212394659Y-68373380D01*
X212386790Y-68404794D01*
X212375880Y-68435286D01*
X212362034Y-68464561D01*
X212345385Y-68492338D01*
X212326093Y-68518350D01*
X212304345Y-68542345D01*
X212280350Y-68564093D01*
X212254338Y-68583385D01*
X212226561Y-68600034D01*
X212197286Y-68613880D01*
X212166794Y-68624790D01*
X212135380Y-68632659D01*
X212103346Y-68637411D01*
X212071000Y-68639000D01*
X211081000Y-68639000D01*
X211048654Y-68637411D01*
X211016620Y-68632659D01*
X210985206Y-68624790D01*
X210954714Y-68613880D01*
X210925439Y-68600034D01*
X210897662Y-68583385D01*
X210871650Y-68564093D01*
X210847655Y-68542345D01*
X210825907Y-68518350D01*
X210806615Y-68492338D01*
X210789966Y-68464561D01*
X210776120Y-68435286D01*
X210765210Y-68404794D01*
X210757341Y-68373380D01*
X210752589Y-68341346D01*
X210751000Y-68309000D01*
X210751000Y-66819000D01*
X210752589Y-66786654D01*
X210757341Y-66754620D01*
X210765210Y-66723206D01*
X210776120Y-66692714D01*
X210789966Y-66663439D01*
X210806615Y-66635662D01*
X210825907Y-66609650D01*
X210847655Y-66585655D01*
X210871650Y-66563907D01*
X210897662Y-66544615D01*
X210925439Y-66527966D01*
X210954714Y-66514120D01*
X210985206Y-66503210D01*
X211016620Y-66495341D01*
X211048654Y-66490589D01*
X211081000Y-66489000D01*
X212071000Y-66489000D01*
X212103346Y-66490589D01*
X212103346Y-66490589D01*
G37*
D20*
X211576000Y-67564000D03*
D21*
X248856500Y-84709000D03*
X248856500Y-82709000D03*
D17*
G36*
X255031346Y-89219589D02*
G01*
X255063380Y-89224341D01*
X255094794Y-89232210D01*
X255125286Y-89243120D01*
X255154561Y-89256966D01*
X255182338Y-89273615D01*
X255208350Y-89292907D01*
X255232345Y-89314655D01*
X255254093Y-89338650D01*
X255273385Y-89364662D01*
X255290034Y-89392439D01*
X255303880Y-89421714D01*
X255314790Y-89452206D01*
X255322659Y-89483620D01*
X255327411Y-89515654D01*
X255329000Y-89548000D01*
X255329000Y-90538000D01*
X255327411Y-90570346D01*
X255322659Y-90602380D01*
X255314790Y-90633794D01*
X255303880Y-90664286D01*
X255290034Y-90693561D01*
X255273385Y-90721338D01*
X255254093Y-90747350D01*
X255232345Y-90771345D01*
X255208350Y-90793093D01*
X255182338Y-90812385D01*
X255154561Y-90829034D01*
X255125286Y-90842880D01*
X255094794Y-90853790D01*
X255063380Y-90861659D01*
X255031346Y-90866411D01*
X254999000Y-90868000D01*
X253509000Y-90868000D01*
X253476654Y-90866411D01*
X253444620Y-90861659D01*
X253413206Y-90853790D01*
X253382714Y-90842880D01*
X253353439Y-90829034D01*
X253325662Y-90812385D01*
X253299650Y-90793093D01*
X253275655Y-90771345D01*
X253253907Y-90747350D01*
X253234615Y-90721338D01*
X253217966Y-90693561D01*
X253204120Y-90664286D01*
X253193210Y-90633794D01*
X253185341Y-90602380D01*
X253180589Y-90570346D01*
X253179000Y-90538000D01*
X253179000Y-89548000D01*
X253180589Y-89515654D01*
X253185341Y-89483620D01*
X253193210Y-89452206D01*
X253204120Y-89421714D01*
X253217966Y-89392439D01*
X253234615Y-89364662D01*
X253253907Y-89338650D01*
X253275655Y-89314655D01*
X253299650Y-89292907D01*
X253325662Y-89273615D01*
X253353439Y-89256966D01*
X253382714Y-89243120D01*
X253413206Y-89232210D01*
X253444620Y-89224341D01*
X253476654Y-89219589D01*
X253509000Y-89218000D01*
X254999000Y-89218000D01*
X255031346Y-89219589D01*
X255031346Y-89219589D01*
G37*
D20*
X254254000Y-90043000D03*
D17*
G36*
X255031346Y-92019589D02*
G01*
X255063380Y-92024341D01*
X255094794Y-92032210D01*
X255125286Y-92043120D01*
X255154561Y-92056966D01*
X255182338Y-92073615D01*
X255208350Y-92092907D01*
X255232345Y-92114655D01*
X255254093Y-92138650D01*
X255273385Y-92164662D01*
X255290034Y-92192439D01*
X255303880Y-92221714D01*
X255314790Y-92252206D01*
X255322659Y-92283620D01*
X255327411Y-92315654D01*
X255329000Y-92348000D01*
X255329000Y-93338000D01*
X255327411Y-93370346D01*
X255322659Y-93402380D01*
X255314790Y-93433794D01*
X255303880Y-93464286D01*
X255290034Y-93493561D01*
X255273385Y-93521338D01*
X255254093Y-93547350D01*
X255232345Y-93571345D01*
X255208350Y-93593093D01*
X255182338Y-93612385D01*
X255154561Y-93629034D01*
X255125286Y-93642880D01*
X255094794Y-93653790D01*
X255063380Y-93661659D01*
X255031346Y-93666411D01*
X254999000Y-93668000D01*
X253509000Y-93668000D01*
X253476654Y-93666411D01*
X253444620Y-93661659D01*
X253413206Y-93653790D01*
X253382714Y-93642880D01*
X253353439Y-93629034D01*
X253325662Y-93612385D01*
X253299650Y-93593093D01*
X253275655Y-93571345D01*
X253253907Y-93547350D01*
X253234615Y-93521338D01*
X253217966Y-93493561D01*
X253204120Y-93464286D01*
X253193210Y-93433794D01*
X253185341Y-93402380D01*
X253180589Y-93370346D01*
X253179000Y-93338000D01*
X253179000Y-92348000D01*
X253180589Y-92315654D01*
X253185341Y-92283620D01*
X253193210Y-92252206D01*
X253204120Y-92221714D01*
X253217966Y-92192439D01*
X253234615Y-92164662D01*
X253253907Y-92138650D01*
X253275655Y-92114655D01*
X253299650Y-92092907D01*
X253325662Y-92073615D01*
X253353439Y-92056966D01*
X253382714Y-92043120D01*
X253413206Y-92032210D01*
X253444620Y-92024341D01*
X253476654Y-92019589D01*
X253509000Y-92018000D01*
X254999000Y-92018000D01*
X255031346Y-92019589D01*
X255031346Y-92019589D01*
G37*
D20*
X254254000Y-92843000D03*
D22*
X245372000Y-82920000D03*
X245872000Y-82920000D03*
X246372000Y-82920000D03*
D23*
X247022000Y-83070000D03*
X247022000Y-83570000D03*
X247022000Y-84070000D03*
X247022000Y-84570000D03*
D22*
X246372000Y-84720000D03*
X245872000Y-84720000D03*
X245372000Y-84720000D03*
D23*
X244722000Y-84570000D03*
X244722000Y-84070000D03*
X244722000Y-83570000D03*
X244722000Y-83070000D03*
D12*
X226822000Y-52578000D03*
X226822000Y-55118000D03*
X224282000Y-52578000D03*
X224282000Y-55118000D03*
X221742000Y-52578000D03*
D13*
X221742000Y-55118000D03*
D17*
G36*
X237444943Y-60020155D02*
G01*
X237478312Y-60025105D01*
X237511035Y-60033302D01*
X237542797Y-60044666D01*
X237573293Y-60059090D01*
X237602227Y-60076432D01*
X237629323Y-60096528D01*
X237654318Y-60119182D01*
X237676972Y-60144177D01*
X237697068Y-60171273D01*
X237714410Y-60200207D01*
X237728834Y-60230703D01*
X237740198Y-60262465D01*
X237748395Y-60295188D01*
X237753345Y-60328557D01*
X237755000Y-60362250D01*
X237755000Y-61049750D01*
X237753345Y-61083443D01*
X237748395Y-61116812D01*
X237740198Y-61149535D01*
X237728834Y-61181297D01*
X237714410Y-61211793D01*
X237697068Y-61240727D01*
X237676972Y-61267823D01*
X237654318Y-61292818D01*
X237629323Y-61315472D01*
X237602227Y-61335568D01*
X237573293Y-61352910D01*
X237542797Y-61367334D01*
X237511035Y-61378698D01*
X237478312Y-61386895D01*
X237444943Y-61391845D01*
X237411250Y-61393500D01*
X236298750Y-61393500D01*
X236265057Y-61391845D01*
X236231688Y-61386895D01*
X236198965Y-61378698D01*
X236167203Y-61367334D01*
X236136707Y-61352910D01*
X236107773Y-61335568D01*
X236080677Y-61315472D01*
X236055682Y-61292818D01*
X236033028Y-61267823D01*
X236012932Y-61240727D01*
X235995590Y-61211793D01*
X235981166Y-61181297D01*
X235969802Y-61149535D01*
X235961605Y-61116812D01*
X235956655Y-61083443D01*
X235955000Y-61049750D01*
X235955000Y-60362250D01*
X235956655Y-60328557D01*
X235961605Y-60295188D01*
X235969802Y-60262465D01*
X235981166Y-60230703D01*
X235995590Y-60200207D01*
X236012932Y-60171273D01*
X236033028Y-60144177D01*
X236055682Y-60119182D01*
X236080677Y-60096528D01*
X236107773Y-60076432D01*
X236136707Y-60059090D01*
X236167203Y-60044666D01*
X236198965Y-60033302D01*
X236231688Y-60025105D01*
X236265057Y-60020155D01*
X236298750Y-60018500D01*
X237411250Y-60018500D01*
X237444943Y-60020155D01*
X237444943Y-60020155D01*
G37*
D24*
X236855000Y-60706000D03*
D17*
G36*
X237444943Y-58145155D02*
G01*
X237478312Y-58150105D01*
X237511035Y-58158302D01*
X237542797Y-58169666D01*
X237573293Y-58184090D01*
X237602227Y-58201432D01*
X237629323Y-58221528D01*
X237654318Y-58244182D01*
X237676972Y-58269177D01*
X237697068Y-58296273D01*
X237714410Y-58325207D01*
X237728834Y-58355703D01*
X237740198Y-58387465D01*
X237748395Y-58420188D01*
X237753345Y-58453557D01*
X237755000Y-58487250D01*
X237755000Y-59174750D01*
X237753345Y-59208443D01*
X237748395Y-59241812D01*
X237740198Y-59274535D01*
X237728834Y-59306297D01*
X237714410Y-59336793D01*
X237697068Y-59365727D01*
X237676972Y-59392823D01*
X237654318Y-59417818D01*
X237629323Y-59440472D01*
X237602227Y-59460568D01*
X237573293Y-59477910D01*
X237542797Y-59492334D01*
X237511035Y-59503698D01*
X237478312Y-59511895D01*
X237444943Y-59516845D01*
X237411250Y-59518500D01*
X236298750Y-59518500D01*
X236265057Y-59516845D01*
X236231688Y-59511895D01*
X236198965Y-59503698D01*
X236167203Y-59492334D01*
X236136707Y-59477910D01*
X236107773Y-59460568D01*
X236080677Y-59440472D01*
X236055682Y-59417818D01*
X236033028Y-59392823D01*
X236012932Y-59365727D01*
X235995590Y-59336793D01*
X235981166Y-59306297D01*
X235969802Y-59274535D01*
X235961605Y-59241812D01*
X235956655Y-59208443D01*
X235955000Y-59174750D01*
X235955000Y-58487250D01*
X235956655Y-58453557D01*
X235961605Y-58420188D01*
X235969802Y-58387465D01*
X235981166Y-58355703D01*
X235995590Y-58325207D01*
X236012932Y-58296273D01*
X236033028Y-58269177D01*
X236055682Y-58244182D01*
X236080677Y-58221528D01*
X236107773Y-58201432D01*
X236136707Y-58184090D01*
X236167203Y-58169666D01*
X236198965Y-58158302D01*
X236231688Y-58150105D01*
X236265057Y-58145155D01*
X236298750Y-58143500D01*
X237411250Y-58143500D01*
X237444943Y-58145155D01*
X237444943Y-58145155D01*
G37*
D24*
X236855000Y-58831000D03*
D17*
G36*
X231920443Y-58145155D02*
G01*
X231953812Y-58150105D01*
X231986535Y-58158302D01*
X232018297Y-58169666D01*
X232048793Y-58184090D01*
X232077727Y-58201432D01*
X232104823Y-58221528D01*
X232129818Y-58244182D01*
X232152472Y-58269177D01*
X232172568Y-58296273D01*
X232189910Y-58325207D01*
X232204334Y-58355703D01*
X232215698Y-58387465D01*
X232223895Y-58420188D01*
X232228845Y-58453557D01*
X232230500Y-58487250D01*
X232230500Y-59174750D01*
X232228845Y-59208443D01*
X232223895Y-59241812D01*
X232215698Y-59274535D01*
X232204334Y-59306297D01*
X232189910Y-59336793D01*
X232172568Y-59365727D01*
X232152472Y-59392823D01*
X232129818Y-59417818D01*
X232104823Y-59440472D01*
X232077727Y-59460568D01*
X232048793Y-59477910D01*
X232018297Y-59492334D01*
X231986535Y-59503698D01*
X231953812Y-59511895D01*
X231920443Y-59516845D01*
X231886750Y-59518500D01*
X230774250Y-59518500D01*
X230740557Y-59516845D01*
X230707188Y-59511895D01*
X230674465Y-59503698D01*
X230642703Y-59492334D01*
X230612207Y-59477910D01*
X230583273Y-59460568D01*
X230556177Y-59440472D01*
X230531182Y-59417818D01*
X230508528Y-59392823D01*
X230488432Y-59365727D01*
X230471090Y-59336793D01*
X230456666Y-59306297D01*
X230445302Y-59274535D01*
X230437105Y-59241812D01*
X230432155Y-59208443D01*
X230430500Y-59174750D01*
X230430500Y-58487250D01*
X230432155Y-58453557D01*
X230437105Y-58420188D01*
X230445302Y-58387465D01*
X230456666Y-58355703D01*
X230471090Y-58325207D01*
X230488432Y-58296273D01*
X230508528Y-58269177D01*
X230531182Y-58244182D01*
X230556177Y-58221528D01*
X230583273Y-58201432D01*
X230612207Y-58184090D01*
X230642703Y-58169666D01*
X230674465Y-58158302D01*
X230707188Y-58150105D01*
X230740557Y-58145155D01*
X230774250Y-58143500D01*
X231886750Y-58143500D01*
X231920443Y-58145155D01*
X231920443Y-58145155D01*
G37*
D24*
X231330500Y-58831000D03*
D17*
G36*
X231920443Y-60020155D02*
G01*
X231953812Y-60025105D01*
X231986535Y-60033302D01*
X232018297Y-60044666D01*
X232048793Y-60059090D01*
X232077727Y-60076432D01*
X232104823Y-60096528D01*
X232129818Y-60119182D01*
X232152472Y-60144177D01*
X232172568Y-60171273D01*
X232189910Y-60200207D01*
X232204334Y-60230703D01*
X232215698Y-60262465D01*
X232223895Y-60295188D01*
X232228845Y-60328557D01*
X232230500Y-60362250D01*
X232230500Y-61049750D01*
X232228845Y-61083443D01*
X232223895Y-61116812D01*
X232215698Y-61149535D01*
X232204334Y-61181297D01*
X232189910Y-61211793D01*
X232172568Y-61240727D01*
X232152472Y-61267823D01*
X232129818Y-61292818D01*
X232104823Y-61315472D01*
X232077727Y-61335568D01*
X232048793Y-61352910D01*
X232018297Y-61367334D01*
X231986535Y-61378698D01*
X231953812Y-61386895D01*
X231920443Y-61391845D01*
X231886750Y-61393500D01*
X230774250Y-61393500D01*
X230740557Y-61391845D01*
X230707188Y-61386895D01*
X230674465Y-61378698D01*
X230642703Y-61367334D01*
X230612207Y-61352910D01*
X230583273Y-61335568D01*
X230556177Y-61315472D01*
X230531182Y-61292818D01*
X230508528Y-61267823D01*
X230488432Y-61240727D01*
X230471090Y-61211793D01*
X230456666Y-61181297D01*
X230445302Y-61149535D01*
X230437105Y-61116812D01*
X230432155Y-61083443D01*
X230430500Y-61049750D01*
X230430500Y-60362250D01*
X230432155Y-60328557D01*
X230437105Y-60295188D01*
X230445302Y-60262465D01*
X230456666Y-60230703D01*
X230471090Y-60200207D01*
X230488432Y-60171273D01*
X230508528Y-60144177D01*
X230531182Y-60119182D01*
X230556177Y-60096528D01*
X230583273Y-60076432D01*
X230612207Y-60059090D01*
X230642703Y-60044666D01*
X230674465Y-60033302D01*
X230707188Y-60025105D01*
X230740557Y-60020155D01*
X230774250Y-60018500D01*
X231886750Y-60018500D01*
X231920443Y-60020155D01*
X231920443Y-60020155D01*
G37*
D24*
X231330500Y-60706000D03*
D17*
G36*
X230332943Y-87452155D02*
G01*
X230366312Y-87457105D01*
X230399035Y-87465302D01*
X230430797Y-87476666D01*
X230461293Y-87491090D01*
X230490227Y-87508432D01*
X230517323Y-87528528D01*
X230542318Y-87551182D01*
X230564972Y-87576177D01*
X230585068Y-87603273D01*
X230602410Y-87632207D01*
X230616834Y-87662703D01*
X230628198Y-87694465D01*
X230636395Y-87727188D01*
X230641345Y-87760557D01*
X230643000Y-87794250D01*
X230643000Y-88481750D01*
X230641345Y-88515443D01*
X230636395Y-88548812D01*
X230628198Y-88581535D01*
X230616834Y-88613297D01*
X230602410Y-88643793D01*
X230585068Y-88672727D01*
X230564972Y-88699823D01*
X230542318Y-88724818D01*
X230517323Y-88747472D01*
X230490227Y-88767568D01*
X230461293Y-88784910D01*
X230430797Y-88799334D01*
X230399035Y-88810698D01*
X230366312Y-88818895D01*
X230332943Y-88823845D01*
X230299250Y-88825500D01*
X229186750Y-88825500D01*
X229153057Y-88823845D01*
X229119688Y-88818895D01*
X229086965Y-88810698D01*
X229055203Y-88799334D01*
X229024707Y-88784910D01*
X228995773Y-88767568D01*
X228968677Y-88747472D01*
X228943682Y-88724818D01*
X228921028Y-88699823D01*
X228900932Y-88672727D01*
X228883590Y-88643793D01*
X228869166Y-88613297D01*
X228857802Y-88581535D01*
X228849605Y-88548812D01*
X228844655Y-88515443D01*
X228843000Y-88481750D01*
X228843000Y-87794250D01*
X228844655Y-87760557D01*
X228849605Y-87727188D01*
X228857802Y-87694465D01*
X228869166Y-87662703D01*
X228883590Y-87632207D01*
X228900932Y-87603273D01*
X228921028Y-87576177D01*
X228943682Y-87551182D01*
X228968677Y-87528528D01*
X228995773Y-87508432D01*
X229024707Y-87491090D01*
X229055203Y-87476666D01*
X229086965Y-87465302D01*
X229119688Y-87457105D01*
X229153057Y-87452155D01*
X229186750Y-87450500D01*
X230299250Y-87450500D01*
X230332943Y-87452155D01*
X230332943Y-87452155D01*
G37*
D24*
X229743000Y-88138000D03*
D17*
G36*
X230332943Y-85577155D02*
G01*
X230366312Y-85582105D01*
X230399035Y-85590302D01*
X230430797Y-85601666D01*
X230461293Y-85616090D01*
X230490227Y-85633432D01*
X230517323Y-85653528D01*
X230542318Y-85676182D01*
X230564972Y-85701177D01*
X230585068Y-85728273D01*
X230602410Y-85757207D01*
X230616834Y-85787703D01*
X230628198Y-85819465D01*
X230636395Y-85852188D01*
X230641345Y-85885557D01*
X230643000Y-85919250D01*
X230643000Y-86606750D01*
X230641345Y-86640443D01*
X230636395Y-86673812D01*
X230628198Y-86706535D01*
X230616834Y-86738297D01*
X230602410Y-86768793D01*
X230585068Y-86797727D01*
X230564972Y-86824823D01*
X230542318Y-86849818D01*
X230517323Y-86872472D01*
X230490227Y-86892568D01*
X230461293Y-86909910D01*
X230430797Y-86924334D01*
X230399035Y-86935698D01*
X230366312Y-86943895D01*
X230332943Y-86948845D01*
X230299250Y-86950500D01*
X229186750Y-86950500D01*
X229153057Y-86948845D01*
X229119688Y-86943895D01*
X229086965Y-86935698D01*
X229055203Y-86924334D01*
X229024707Y-86909910D01*
X228995773Y-86892568D01*
X228968677Y-86872472D01*
X228943682Y-86849818D01*
X228921028Y-86824823D01*
X228900932Y-86797727D01*
X228883590Y-86768793D01*
X228869166Y-86738297D01*
X228857802Y-86706535D01*
X228849605Y-86673812D01*
X228844655Y-86640443D01*
X228843000Y-86606750D01*
X228843000Y-85919250D01*
X228844655Y-85885557D01*
X228849605Y-85852188D01*
X228857802Y-85819465D01*
X228869166Y-85787703D01*
X228883590Y-85757207D01*
X228900932Y-85728273D01*
X228921028Y-85701177D01*
X228943682Y-85676182D01*
X228968677Y-85653528D01*
X228995773Y-85633432D01*
X229024707Y-85616090D01*
X229055203Y-85601666D01*
X229086965Y-85590302D01*
X229119688Y-85582105D01*
X229153057Y-85577155D01*
X229186750Y-85575500D01*
X230299250Y-85575500D01*
X230332943Y-85577155D01*
X230332943Y-85577155D01*
G37*
D24*
X229743000Y-86263000D03*
D17*
G36*
X228173943Y-87452155D02*
G01*
X228207312Y-87457105D01*
X228240035Y-87465302D01*
X228271797Y-87476666D01*
X228302293Y-87491090D01*
X228331227Y-87508432D01*
X228358323Y-87528528D01*
X228383318Y-87551182D01*
X228405972Y-87576177D01*
X228426068Y-87603273D01*
X228443410Y-87632207D01*
X228457834Y-87662703D01*
X228469198Y-87694465D01*
X228477395Y-87727188D01*
X228482345Y-87760557D01*
X228484000Y-87794250D01*
X228484000Y-88481750D01*
X228482345Y-88515443D01*
X228477395Y-88548812D01*
X228469198Y-88581535D01*
X228457834Y-88613297D01*
X228443410Y-88643793D01*
X228426068Y-88672727D01*
X228405972Y-88699823D01*
X228383318Y-88724818D01*
X228358323Y-88747472D01*
X228331227Y-88767568D01*
X228302293Y-88784910D01*
X228271797Y-88799334D01*
X228240035Y-88810698D01*
X228207312Y-88818895D01*
X228173943Y-88823845D01*
X228140250Y-88825500D01*
X227027750Y-88825500D01*
X226994057Y-88823845D01*
X226960688Y-88818895D01*
X226927965Y-88810698D01*
X226896203Y-88799334D01*
X226865707Y-88784910D01*
X226836773Y-88767568D01*
X226809677Y-88747472D01*
X226784682Y-88724818D01*
X226762028Y-88699823D01*
X226741932Y-88672727D01*
X226724590Y-88643793D01*
X226710166Y-88613297D01*
X226698802Y-88581535D01*
X226690605Y-88548812D01*
X226685655Y-88515443D01*
X226684000Y-88481750D01*
X226684000Y-87794250D01*
X226685655Y-87760557D01*
X226690605Y-87727188D01*
X226698802Y-87694465D01*
X226710166Y-87662703D01*
X226724590Y-87632207D01*
X226741932Y-87603273D01*
X226762028Y-87576177D01*
X226784682Y-87551182D01*
X226809677Y-87528528D01*
X226836773Y-87508432D01*
X226865707Y-87491090D01*
X226896203Y-87476666D01*
X226927965Y-87465302D01*
X226960688Y-87457105D01*
X226994057Y-87452155D01*
X227027750Y-87450500D01*
X228140250Y-87450500D01*
X228173943Y-87452155D01*
X228173943Y-87452155D01*
G37*
D24*
X227584000Y-88138000D03*
D17*
G36*
X228173943Y-85577155D02*
G01*
X228207312Y-85582105D01*
X228240035Y-85590302D01*
X228271797Y-85601666D01*
X228302293Y-85616090D01*
X228331227Y-85633432D01*
X228358323Y-85653528D01*
X228383318Y-85676182D01*
X228405972Y-85701177D01*
X228426068Y-85728273D01*
X228443410Y-85757207D01*
X228457834Y-85787703D01*
X228469198Y-85819465D01*
X228477395Y-85852188D01*
X228482345Y-85885557D01*
X228484000Y-85919250D01*
X228484000Y-86606750D01*
X228482345Y-86640443D01*
X228477395Y-86673812D01*
X228469198Y-86706535D01*
X228457834Y-86738297D01*
X228443410Y-86768793D01*
X228426068Y-86797727D01*
X228405972Y-86824823D01*
X228383318Y-86849818D01*
X228358323Y-86872472D01*
X228331227Y-86892568D01*
X228302293Y-86909910D01*
X228271797Y-86924334D01*
X228240035Y-86935698D01*
X228207312Y-86943895D01*
X228173943Y-86948845D01*
X228140250Y-86950500D01*
X227027750Y-86950500D01*
X226994057Y-86948845D01*
X226960688Y-86943895D01*
X226927965Y-86935698D01*
X226896203Y-86924334D01*
X226865707Y-86909910D01*
X226836773Y-86892568D01*
X226809677Y-86872472D01*
X226784682Y-86849818D01*
X226762028Y-86824823D01*
X226741932Y-86797727D01*
X226724590Y-86768793D01*
X226710166Y-86738297D01*
X226698802Y-86706535D01*
X226690605Y-86673812D01*
X226685655Y-86640443D01*
X226684000Y-86606750D01*
X226684000Y-85919250D01*
X226685655Y-85885557D01*
X226690605Y-85852188D01*
X226698802Y-85819465D01*
X226710166Y-85787703D01*
X226724590Y-85757207D01*
X226741932Y-85728273D01*
X226762028Y-85701177D01*
X226784682Y-85676182D01*
X226809677Y-85653528D01*
X226836773Y-85633432D01*
X226865707Y-85616090D01*
X226896203Y-85601666D01*
X226927965Y-85590302D01*
X226960688Y-85582105D01*
X226994057Y-85577155D01*
X227027750Y-85575500D01*
X228140250Y-85575500D01*
X228173943Y-85577155D01*
X228173943Y-85577155D01*
G37*
D24*
X227584000Y-86263000D03*
D17*
G36*
X230523443Y-52542155D02*
G01*
X230556812Y-52547105D01*
X230589535Y-52555302D01*
X230621297Y-52566666D01*
X230651793Y-52581090D01*
X230680727Y-52598432D01*
X230707823Y-52618528D01*
X230732818Y-52641182D01*
X230755472Y-52666177D01*
X230775568Y-52693273D01*
X230792910Y-52722207D01*
X230807334Y-52752703D01*
X230818698Y-52784465D01*
X230826895Y-52817188D01*
X230831845Y-52850557D01*
X230833500Y-52884250D01*
X230833500Y-53571750D01*
X230831845Y-53605443D01*
X230826895Y-53638812D01*
X230818698Y-53671535D01*
X230807334Y-53703297D01*
X230792910Y-53733793D01*
X230775568Y-53762727D01*
X230755472Y-53789823D01*
X230732818Y-53814818D01*
X230707823Y-53837472D01*
X230680727Y-53857568D01*
X230651793Y-53874910D01*
X230621297Y-53889334D01*
X230589535Y-53900698D01*
X230556812Y-53908895D01*
X230523443Y-53913845D01*
X230489750Y-53915500D01*
X229377250Y-53915500D01*
X229343557Y-53913845D01*
X229310188Y-53908895D01*
X229277465Y-53900698D01*
X229245703Y-53889334D01*
X229215207Y-53874910D01*
X229186273Y-53857568D01*
X229159177Y-53837472D01*
X229134182Y-53814818D01*
X229111528Y-53789823D01*
X229091432Y-53762727D01*
X229074090Y-53733793D01*
X229059666Y-53703297D01*
X229048302Y-53671535D01*
X229040105Y-53638812D01*
X229035155Y-53605443D01*
X229033500Y-53571750D01*
X229033500Y-52884250D01*
X229035155Y-52850557D01*
X229040105Y-52817188D01*
X229048302Y-52784465D01*
X229059666Y-52752703D01*
X229074090Y-52722207D01*
X229091432Y-52693273D01*
X229111528Y-52666177D01*
X229134182Y-52641182D01*
X229159177Y-52618528D01*
X229186273Y-52598432D01*
X229215207Y-52581090D01*
X229245703Y-52566666D01*
X229277465Y-52555302D01*
X229310188Y-52547105D01*
X229343557Y-52542155D01*
X229377250Y-52540500D01*
X230489750Y-52540500D01*
X230523443Y-52542155D01*
X230523443Y-52542155D01*
G37*
D24*
X229933500Y-53228000D03*
D17*
G36*
X230523443Y-54417155D02*
G01*
X230556812Y-54422105D01*
X230589535Y-54430302D01*
X230621297Y-54441666D01*
X230651793Y-54456090D01*
X230680727Y-54473432D01*
X230707823Y-54493528D01*
X230732818Y-54516182D01*
X230755472Y-54541177D01*
X230775568Y-54568273D01*
X230792910Y-54597207D01*
X230807334Y-54627703D01*
X230818698Y-54659465D01*
X230826895Y-54692188D01*
X230831845Y-54725557D01*
X230833500Y-54759250D01*
X230833500Y-55446750D01*
X230831845Y-55480443D01*
X230826895Y-55513812D01*
X230818698Y-55546535D01*
X230807334Y-55578297D01*
X230792910Y-55608793D01*
X230775568Y-55637727D01*
X230755472Y-55664823D01*
X230732818Y-55689818D01*
X230707823Y-55712472D01*
X230680727Y-55732568D01*
X230651793Y-55749910D01*
X230621297Y-55764334D01*
X230589535Y-55775698D01*
X230556812Y-55783895D01*
X230523443Y-55788845D01*
X230489750Y-55790500D01*
X229377250Y-55790500D01*
X229343557Y-55788845D01*
X229310188Y-55783895D01*
X229277465Y-55775698D01*
X229245703Y-55764334D01*
X229215207Y-55749910D01*
X229186273Y-55732568D01*
X229159177Y-55712472D01*
X229134182Y-55689818D01*
X229111528Y-55664823D01*
X229091432Y-55637727D01*
X229074090Y-55608793D01*
X229059666Y-55578297D01*
X229048302Y-55546535D01*
X229040105Y-55513812D01*
X229035155Y-55480443D01*
X229033500Y-55446750D01*
X229033500Y-54759250D01*
X229035155Y-54725557D01*
X229040105Y-54692188D01*
X229048302Y-54659465D01*
X229059666Y-54627703D01*
X229074090Y-54597207D01*
X229091432Y-54568273D01*
X229111528Y-54541177D01*
X229134182Y-54516182D01*
X229159177Y-54493528D01*
X229186273Y-54473432D01*
X229215207Y-54456090D01*
X229245703Y-54441666D01*
X229277465Y-54430302D01*
X229310188Y-54422105D01*
X229343557Y-54417155D01*
X229377250Y-54415500D01*
X230489750Y-54415500D01*
X230523443Y-54417155D01*
X230523443Y-54417155D01*
G37*
D24*
X229933500Y-55103000D03*
D17*
G36*
X244810943Y-70482655D02*
G01*
X244844312Y-70487605D01*
X244877035Y-70495802D01*
X244908797Y-70507166D01*
X244939293Y-70521590D01*
X244968227Y-70538932D01*
X244995323Y-70559028D01*
X245020318Y-70581682D01*
X245042972Y-70606677D01*
X245063068Y-70633773D01*
X245080410Y-70662707D01*
X245094834Y-70693203D01*
X245106198Y-70724965D01*
X245114395Y-70757688D01*
X245119345Y-70791057D01*
X245121000Y-70824750D01*
X245121000Y-71512250D01*
X245119345Y-71545943D01*
X245114395Y-71579312D01*
X245106198Y-71612035D01*
X245094834Y-71643797D01*
X245080410Y-71674293D01*
X245063068Y-71703227D01*
X245042972Y-71730323D01*
X245020318Y-71755318D01*
X244995323Y-71777972D01*
X244968227Y-71798068D01*
X244939293Y-71815410D01*
X244908797Y-71829834D01*
X244877035Y-71841198D01*
X244844312Y-71849395D01*
X244810943Y-71854345D01*
X244777250Y-71856000D01*
X243664750Y-71856000D01*
X243631057Y-71854345D01*
X243597688Y-71849395D01*
X243564965Y-71841198D01*
X243533203Y-71829834D01*
X243502707Y-71815410D01*
X243473773Y-71798068D01*
X243446677Y-71777972D01*
X243421682Y-71755318D01*
X243399028Y-71730323D01*
X243378932Y-71703227D01*
X243361590Y-71674293D01*
X243347166Y-71643797D01*
X243335802Y-71612035D01*
X243327605Y-71579312D01*
X243322655Y-71545943D01*
X243321000Y-71512250D01*
X243321000Y-70824750D01*
X243322655Y-70791057D01*
X243327605Y-70757688D01*
X243335802Y-70724965D01*
X243347166Y-70693203D01*
X243361590Y-70662707D01*
X243378932Y-70633773D01*
X243399028Y-70606677D01*
X243421682Y-70581682D01*
X243446677Y-70559028D01*
X243473773Y-70538932D01*
X243502707Y-70521590D01*
X243533203Y-70507166D01*
X243564965Y-70495802D01*
X243597688Y-70487605D01*
X243631057Y-70482655D01*
X243664750Y-70481000D01*
X244777250Y-70481000D01*
X244810943Y-70482655D01*
X244810943Y-70482655D01*
G37*
D24*
X244221000Y-71168500D03*
D17*
G36*
X244810943Y-68607655D02*
G01*
X244844312Y-68612605D01*
X244877035Y-68620802D01*
X244908797Y-68632166D01*
X244939293Y-68646590D01*
X244968227Y-68663932D01*
X244995323Y-68684028D01*
X245020318Y-68706682D01*
X245042972Y-68731677D01*
X245063068Y-68758773D01*
X245080410Y-68787707D01*
X245094834Y-68818203D01*
X245106198Y-68849965D01*
X245114395Y-68882688D01*
X245119345Y-68916057D01*
X245121000Y-68949750D01*
X245121000Y-69637250D01*
X245119345Y-69670943D01*
X245114395Y-69704312D01*
X245106198Y-69737035D01*
X245094834Y-69768797D01*
X245080410Y-69799293D01*
X245063068Y-69828227D01*
X245042972Y-69855323D01*
X245020318Y-69880318D01*
X244995323Y-69902972D01*
X244968227Y-69923068D01*
X244939293Y-69940410D01*
X244908797Y-69954834D01*
X244877035Y-69966198D01*
X244844312Y-69974395D01*
X244810943Y-69979345D01*
X244777250Y-69981000D01*
X243664750Y-69981000D01*
X243631057Y-69979345D01*
X243597688Y-69974395D01*
X243564965Y-69966198D01*
X243533203Y-69954834D01*
X243502707Y-69940410D01*
X243473773Y-69923068D01*
X243446677Y-69902972D01*
X243421682Y-69880318D01*
X243399028Y-69855323D01*
X243378932Y-69828227D01*
X243361590Y-69799293D01*
X243347166Y-69768797D01*
X243335802Y-69737035D01*
X243327605Y-69704312D01*
X243322655Y-69670943D01*
X243321000Y-69637250D01*
X243321000Y-68949750D01*
X243322655Y-68916057D01*
X243327605Y-68882688D01*
X243335802Y-68849965D01*
X243347166Y-68818203D01*
X243361590Y-68787707D01*
X243378932Y-68758773D01*
X243399028Y-68731677D01*
X243421682Y-68706682D01*
X243446677Y-68684028D01*
X243473773Y-68663932D01*
X243502707Y-68646590D01*
X243533203Y-68632166D01*
X243564965Y-68620802D01*
X243597688Y-68612605D01*
X243631057Y-68607655D01*
X243664750Y-68606000D01*
X244777250Y-68606000D01*
X244810943Y-68607655D01*
X244810943Y-68607655D01*
G37*
D24*
X244221000Y-69293500D03*
D17*
G36*
X251160943Y-70482655D02*
G01*
X251194312Y-70487605D01*
X251227035Y-70495802D01*
X251258797Y-70507166D01*
X251289293Y-70521590D01*
X251318227Y-70538932D01*
X251345323Y-70559028D01*
X251370318Y-70581682D01*
X251392972Y-70606677D01*
X251413068Y-70633773D01*
X251430410Y-70662707D01*
X251444834Y-70693203D01*
X251456198Y-70724965D01*
X251464395Y-70757688D01*
X251469345Y-70791057D01*
X251471000Y-70824750D01*
X251471000Y-71512250D01*
X251469345Y-71545943D01*
X251464395Y-71579312D01*
X251456198Y-71612035D01*
X251444834Y-71643797D01*
X251430410Y-71674293D01*
X251413068Y-71703227D01*
X251392972Y-71730323D01*
X251370318Y-71755318D01*
X251345323Y-71777972D01*
X251318227Y-71798068D01*
X251289293Y-71815410D01*
X251258797Y-71829834D01*
X251227035Y-71841198D01*
X251194312Y-71849395D01*
X251160943Y-71854345D01*
X251127250Y-71856000D01*
X250014750Y-71856000D01*
X249981057Y-71854345D01*
X249947688Y-71849395D01*
X249914965Y-71841198D01*
X249883203Y-71829834D01*
X249852707Y-71815410D01*
X249823773Y-71798068D01*
X249796677Y-71777972D01*
X249771682Y-71755318D01*
X249749028Y-71730323D01*
X249728932Y-71703227D01*
X249711590Y-71674293D01*
X249697166Y-71643797D01*
X249685802Y-71612035D01*
X249677605Y-71579312D01*
X249672655Y-71545943D01*
X249671000Y-71512250D01*
X249671000Y-70824750D01*
X249672655Y-70791057D01*
X249677605Y-70757688D01*
X249685802Y-70724965D01*
X249697166Y-70693203D01*
X249711590Y-70662707D01*
X249728932Y-70633773D01*
X249749028Y-70606677D01*
X249771682Y-70581682D01*
X249796677Y-70559028D01*
X249823773Y-70538932D01*
X249852707Y-70521590D01*
X249883203Y-70507166D01*
X249914965Y-70495802D01*
X249947688Y-70487605D01*
X249981057Y-70482655D01*
X250014750Y-70481000D01*
X251127250Y-70481000D01*
X251160943Y-70482655D01*
X251160943Y-70482655D01*
G37*
D24*
X250571000Y-71168500D03*
D17*
G36*
X251160943Y-68607655D02*
G01*
X251194312Y-68612605D01*
X251227035Y-68620802D01*
X251258797Y-68632166D01*
X251289293Y-68646590D01*
X251318227Y-68663932D01*
X251345323Y-68684028D01*
X251370318Y-68706682D01*
X251392972Y-68731677D01*
X251413068Y-68758773D01*
X251430410Y-68787707D01*
X251444834Y-68818203D01*
X251456198Y-68849965D01*
X251464395Y-68882688D01*
X251469345Y-68916057D01*
X251471000Y-68949750D01*
X251471000Y-69637250D01*
X251469345Y-69670943D01*
X251464395Y-69704312D01*
X251456198Y-69737035D01*
X251444834Y-69768797D01*
X251430410Y-69799293D01*
X251413068Y-69828227D01*
X251392972Y-69855323D01*
X251370318Y-69880318D01*
X251345323Y-69902972D01*
X251318227Y-69923068D01*
X251289293Y-69940410D01*
X251258797Y-69954834D01*
X251227035Y-69966198D01*
X251194312Y-69974395D01*
X251160943Y-69979345D01*
X251127250Y-69981000D01*
X250014750Y-69981000D01*
X249981057Y-69979345D01*
X249947688Y-69974395D01*
X249914965Y-69966198D01*
X249883203Y-69954834D01*
X249852707Y-69940410D01*
X249823773Y-69923068D01*
X249796677Y-69902972D01*
X249771682Y-69880318D01*
X249749028Y-69855323D01*
X249728932Y-69828227D01*
X249711590Y-69799293D01*
X249697166Y-69768797D01*
X249685802Y-69737035D01*
X249677605Y-69704312D01*
X249672655Y-69670943D01*
X249671000Y-69637250D01*
X249671000Y-68949750D01*
X249672655Y-68916057D01*
X249677605Y-68882688D01*
X249685802Y-68849965D01*
X249697166Y-68818203D01*
X249711590Y-68787707D01*
X249728932Y-68758773D01*
X249749028Y-68731677D01*
X249771682Y-68706682D01*
X249796677Y-68684028D01*
X249823773Y-68663932D01*
X249852707Y-68646590D01*
X249883203Y-68632166D01*
X249914965Y-68620802D01*
X249947688Y-68612605D01*
X249981057Y-68607655D01*
X250014750Y-68606000D01*
X251127250Y-68606000D01*
X251160943Y-68607655D01*
X251160943Y-68607655D01*
G37*
D24*
X250571000Y-69293500D03*
D17*
G36*
X229253443Y-58115155D02*
G01*
X229286812Y-58120105D01*
X229319535Y-58128302D01*
X229351297Y-58139666D01*
X229381793Y-58154090D01*
X229410727Y-58171432D01*
X229437823Y-58191528D01*
X229462818Y-58214182D01*
X229485472Y-58239177D01*
X229505568Y-58266273D01*
X229522910Y-58295207D01*
X229537334Y-58325703D01*
X229548698Y-58357465D01*
X229556895Y-58390188D01*
X229561845Y-58423557D01*
X229563500Y-58457250D01*
X229563500Y-59144750D01*
X229561845Y-59178443D01*
X229556895Y-59211812D01*
X229548698Y-59244535D01*
X229537334Y-59276297D01*
X229522910Y-59306793D01*
X229505568Y-59335727D01*
X229485472Y-59362823D01*
X229462818Y-59387818D01*
X229437823Y-59410472D01*
X229410727Y-59430568D01*
X229381793Y-59447910D01*
X229351297Y-59462334D01*
X229319535Y-59473698D01*
X229286812Y-59481895D01*
X229253443Y-59486845D01*
X229219750Y-59488500D01*
X228107250Y-59488500D01*
X228073557Y-59486845D01*
X228040188Y-59481895D01*
X228007465Y-59473698D01*
X227975703Y-59462334D01*
X227945207Y-59447910D01*
X227916273Y-59430568D01*
X227889177Y-59410472D01*
X227864182Y-59387818D01*
X227841528Y-59362823D01*
X227821432Y-59335727D01*
X227804090Y-59306793D01*
X227789666Y-59276297D01*
X227778302Y-59244535D01*
X227770105Y-59211812D01*
X227765155Y-59178443D01*
X227763500Y-59144750D01*
X227763500Y-58457250D01*
X227765155Y-58423557D01*
X227770105Y-58390188D01*
X227778302Y-58357465D01*
X227789666Y-58325703D01*
X227804090Y-58295207D01*
X227821432Y-58266273D01*
X227841528Y-58239177D01*
X227864182Y-58214182D01*
X227889177Y-58191528D01*
X227916273Y-58171432D01*
X227945207Y-58154090D01*
X227975703Y-58139666D01*
X228007465Y-58128302D01*
X228040188Y-58120105D01*
X228073557Y-58115155D01*
X228107250Y-58113500D01*
X229219750Y-58113500D01*
X229253443Y-58115155D01*
X229253443Y-58115155D01*
G37*
D24*
X228663500Y-58801000D03*
D17*
G36*
X229253443Y-59990155D02*
G01*
X229286812Y-59995105D01*
X229319535Y-60003302D01*
X229351297Y-60014666D01*
X229381793Y-60029090D01*
X229410727Y-60046432D01*
X229437823Y-60066528D01*
X229462818Y-60089182D01*
X229485472Y-60114177D01*
X229505568Y-60141273D01*
X229522910Y-60170207D01*
X229537334Y-60200703D01*
X229548698Y-60232465D01*
X229556895Y-60265188D01*
X229561845Y-60298557D01*
X229563500Y-60332250D01*
X229563500Y-61019750D01*
X229561845Y-61053443D01*
X229556895Y-61086812D01*
X229548698Y-61119535D01*
X229537334Y-61151297D01*
X229522910Y-61181793D01*
X229505568Y-61210727D01*
X229485472Y-61237823D01*
X229462818Y-61262818D01*
X229437823Y-61285472D01*
X229410727Y-61305568D01*
X229381793Y-61322910D01*
X229351297Y-61337334D01*
X229319535Y-61348698D01*
X229286812Y-61356895D01*
X229253443Y-61361845D01*
X229219750Y-61363500D01*
X228107250Y-61363500D01*
X228073557Y-61361845D01*
X228040188Y-61356895D01*
X228007465Y-61348698D01*
X227975703Y-61337334D01*
X227945207Y-61322910D01*
X227916273Y-61305568D01*
X227889177Y-61285472D01*
X227864182Y-61262818D01*
X227841528Y-61237823D01*
X227821432Y-61210727D01*
X227804090Y-61181793D01*
X227789666Y-61151297D01*
X227778302Y-61119535D01*
X227770105Y-61086812D01*
X227765155Y-61053443D01*
X227763500Y-61019750D01*
X227763500Y-60332250D01*
X227765155Y-60298557D01*
X227770105Y-60265188D01*
X227778302Y-60232465D01*
X227789666Y-60200703D01*
X227804090Y-60170207D01*
X227821432Y-60141273D01*
X227841528Y-60114177D01*
X227864182Y-60089182D01*
X227889177Y-60066528D01*
X227916273Y-60046432D01*
X227945207Y-60029090D01*
X227975703Y-60014666D01*
X228007465Y-60003302D01*
X228040188Y-59995105D01*
X228073557Y-59990155D01*
X228107250Y-59988500D01*
X229219750Y-59988500D01*
X229253443Y-59990155D01*
X229253443Y-59990155D01*
G37*
D24*
X228663500Y-60676000D03*
D25*
X222403000Y-65024000D03*
X223203000Y-65024000D03*
X224003000Y-65024000D03*
X224803000Y-65024000D03*
X225603000Y-65024000D03*
X226403000Y-65024000D03*
X227203000Y-65024000D03*
X228003000Y-65024000D03*
D26*
X229453000Y-66474000D03*
X229453000Y-67274000D03*
X229453000Y-68074000D03*
X229453000Y-68874000D03*
X229453000Y-69674000D03*
X229453000Y-70474000D03*
X229453000Y-71274000D03*
X229453000Y-72074000D03*
D25*
X228003000Y-73524000D03*
X227203000Y-73524000D03*
X226403000Y-73524000D03*
X225603000Y-73524000D03*
X224803000Y-73524000D03*
X224003000Y-73524000D03*
X223203000Y-73524000D03*
X222403000Y-73524000D03*
D26*
X220953000Y-72074000D03*
X220953000Y-71274000D03*
X220953000Y-70474000D03*
X220953000Y-69674000D03*
X220953000Y-68874000D03*
X220953000Y-68074000D03*
X220953000Y-67274000D03*
X220953000Y-66474000D03*
D12*
X238252000Y-96774000D03*
X235712000Y-96774000D03*
X238252000Y-94234000D03*
D13*
X235712000Y-94234000D03*
D27*
X237805000Y-81138000D03*
X237805000Y-81788000D03*
X237805000Y-82438000D03*
X235905000Y-82438000D03*
X235905000Y-81788000D03*
X235905000Y-81138000D03*
X237739000Y-84298000D03*
X237739000Y-84948000D03*
X237739000Y-85598000D03*
X235839000Y-85598000D03*
X235839000Y-84948000D03*
X235839000Y-84298000D03*
X235844000Y-87473000D03*
X235844000Y-88123000D03*
X235844000Y-88773000D03*
X237744000Y-88773000D03*
X237744000Y-88123000D03*
X237744000Y-87473000D03*
X237871000Y-77948000D03*
X237871000Y-78598000D03*
X237871000Y-79248000D03*
X235971000Y-79248000D03*
X235971000Y-78598000D03*
X235971000Y-77948000D03*
D28*
X229743000Y-83773000D03*
X229743000Y-81073000D03*
X227584000Y-83773000D03*
X227584000Y-81073000D03*
D29*
X246507000Y-71215000D03*
X248407000Y-71215000D03*
X247457000Y-69215000D03*
X240096000Y-71231000D03*
X241996000Y-71231000D03*
X241046000Y-69231000D03*
D30*
X249950000Y-90093000D03*
X247650000Y-90093000D03*
X245350000Y-90093000D03*
D31*
X247650000Y-96393000D03*
M02*
