G04 #@! TF.GenerationSoftware,KiCad,Pcbnew,(5.1.2)-1*
G04 #@! TF.CreationDate,2019-08-24T01:42:28-04:00*
G04 #@! TF.ProjectId,AAquad_PCB,41417175-6164-45f5-9043-422e6b696361,rev?*
G04 #@! TF.SameCoordinates,Original*
G04 #@! TF.FileFunction,Legend,Top*
G04 #@! TF.FilePolarity,Positive*
%FSLAX46Y46*%
G04 Gerber Fmt 4.6, Leading zero omitted, Abs format (unit mm)*
G04 Created by KiCad (PCBNEW (5.1.2)-1) date 2019-08-24 01:42:28*
%MOMM*%
%LPD*%
G04 APERTURE LIST*
%ADD10C,0.100000*%
%ADD11C,0.200000*%
%ADD12C,0.180000*%
%ADD13C,0.225000*%
%ADD14C,0.300000*%
%ADD15C,0.120000*%
%ADD16C,0.254000*%
%ADD17C,0.250000*%
%ADD18C,0.400000*%
%ADD19C,0.150000*%
G04 APERTURE END LIST*
D10*
X217277190Y-77755666D02*
X217777190Y-77589000D01*
X217277190Y-77422333D01*
X217729571Y-76969952D02*
X217753380Y-76993761D01*
X217777190Y-77065190D01*
X217777190Y-77112809D01*
X217753380Y-77184238D01*
X217705761Y-77231857D01*
X217658142Y-77255666D01*
X217562904Y-77279476D01*
X217491476Y-77279476D01*
X217396238Y-77255666D01*
X217348619Y-77231857D01*
X217301000Y-77184238D01*
X217277190Y-77112809D01*
X217277190Y-77065190D01*
X217301000Y-76993761D01*
X217324809Y-76969952D01*
X217729571Y-76469952D02*
X217753380Y-76493761D01*
X217777190Y-76565190D01*
X217777190Y-76612809D01*
X217753380Y-76684238D01*
X217705761Y-76731857D01*
X217658142Y-76755666D01*
X217562904Y-76779476D01*
X217491476Y-76779476D01*
X217396238Y-76755666D01*
X217348619Y-76731857D01*
X217301000Y-76684238D01*
X217277190Y-76612809D01*
X217277190Y-76565190D01*
X217301000Y-76493761D01*
X217324809Y-76469952D01*
X216539000Y-77469952D02*
X216515190Y-77517571D01*
X216515190Y-77589000D01*
X216539000Y-77660428D01*
X216586619Y-77708047D01*
X216634238Y-77731857D01*
X216729476Y-77755666D01*
X216800904Y-77755666D01*
X216896142Y-77731857D01*
X216943761Y-77708047D01*
X216991380Y-77660428D01*
X217015190Y-77589000D01*
X217015190Y-77541380D01*
X216991380Y-77469952D01*
X216967571Y-77446142D01*
X216800904Y-77446142D01*
X216800904Y-77541380D01*
X217015190Y-77231857D02*
X216515190Y-77231857D01*
X217015190Y-76946142D01*
X216515190Y-76946142D01*
X217015190Y-76708047D02*
X216515190Y-76708047D01*
X216515190Y-76589000D01*
X216539000Y-76517571D01*
X216586619Y-76469952D01*
X216634238Y-76446142D01*
X216729476Y-76422333D01*
X216800904Y-76422333D01*
X216896142Y-76446142D01*
X216943761Y-76469952D01*
X216991380Y-76517571D01*
X217015190Y-76589000D01*
X217015190Y-76708047D01*
X259742809Y-81803857D02*
X259719000Y-81780047D01*
X259695190Y-81732428D01*
X259695190Y-81613380D01*
X259719000Y-81565761D01*
X259742809Y-81541952D01*
X259790428Y-81518142D01*
X259838047Y-81518142D01*
X259909476Y-81541952D01*
X260195190Y-81827666D01*
X260195190Y-81518142D01*
X262862190Y-81518142D02*
X262862190Y-81803857D01*
X262862190Y-81661000D02*
X262362190Y-81661000D01*
X262433619Y-81708619D01*
X262481238Y-81756238D01*
X262505047Y-81803857D01*
X262528857Y-80549761D02*
X262862190Y-80549761D01*
X262338380Y-80668809D02*
X262695523Y-80787857D01*
X262695523Y-80478333D01*
X259695190Y-80811666D02*
X259695190Y-80502142D01*
X259885666Y-80668809D01*
X259885666Y-80597380D01*
X259909476Y-80549761D01*
X259933285Y-80525952D01*
X259980904Y-80502142D01*
X260099952Y-80502142D01*
X260147571Y-80525952D01*
X260171380Y-80549761D01*
X260195190Y-80597380D01*
X260195190Y-80740238D01*
X260171380Y-80787857D01*
X260147571Y-80811666D01*
X262386000Y-79755952D02*
X262362190Y-79803571D01*
X262362190Y-79875000D01*
X262386000Y-79946428D01*
X262433619Y-79994047D01*
X262481238Y-80017857D01*
X262576476Y-80041666D01*
X262647904Y-80041666D01*
X262743142Y-80017857D01*
X262790761Y-79994047D01*
X262838380Y-79946428D01*
X262862190Y-79875000D01*
X262862190Y-79827380D01*
X262838380Y-79755952D01*
X262814571Y-79732142D01*
X262647904Y-79732142D01*
X262647904Y-79827380D01*
X262862190Y-79517857D02*
X262362190Y-79517857D01*
X262862190Y-79232142D01*
X262362190Y-79232142D01*
X262862190Y-78994047D02*
X262362190Y-78994047D01*
X262362190Y-78875000D01*
X262386000Y-78803571D01*
X262433619Y-78755952D01*
X262481238Y-78732142D01*
X262576476Y-78708333D01*
X262647904Y-78708333D01*
X262743142Y-78732142D01*
X262790761Y-78755952D01*
X262838380Y-78803571D01*
X262862190Y-78875000D01*
X262862190Y-78994047D01*
X259695190Y-80041666D02*
X260195190Y-79875000D01*
X259695190Y-79708333D01*
X260147571Y-79255952D02*
X260171380Y-79279761D01*
X260195190Y-79351190D01*
X260195190Y-79398809D01*
X260171380Y-79470238D01*
X260123761Y-79517857D01*
X260076142Y-79541666D01*
X259980904Y-79565476D01*
X259909476Y-79565476D01*
X259814238Y-79541666D01*
X259766619Y-79517857D01*
X259719000Y-79470238D01*
X259695190Y-79398809D01*
X259695190Y-79351190D01*
X259719000Y-79279761D01*
X259742809Y-79255952D01*
X260147571Y-78755952D02*
X260171380Y-78779761D01*
X260195190Y-78851190D01*
X260195190Y-78898809D01*
X260171380Y-78970238D01*
X260123761Y-79017857D01*
X260076142Y-79041666D01*
X259980904Y-79065476D01*
X259909476Y-79065476D01*
X259814238Y-79041666D01*
X259766619Y-79017857D01*
X259719000Y-78970238D01*
X259695190Y-78898809D01*
X259695190Y-78851190D01*
X259719000Y-78779761D01*
X259742809Y-78755952D01*
X233660190Y-94773666D02*
X234160190Y-94607000D01*
X233660190Y-94440333D01*
X234112571Y-93987952D02*
X234136380Y-94011761D01*
X234160190Y-94083190D01*
X234160190Y-94130809D01*
X234136380Y-94202238D01*
X234088761Y-94249857D01*
X234041142Y-94273666D01*
X233945904Y-94297476D01*
X233874476Y-94297476D01*
X233779238Y-94273666D01*
X233731619Y-94249857D01*
X233684000Y-94202238D01*
X233660190Y-94130809D01*
X233660190Y-94083190D01*
X233684000Y-94011761D01*
X233707809Y-93987952D01*
X234112571Y-93487952D02*
X234136380Y-93511761D01*
X234160190Y-93583190D01*
X234160190Y-93630809D01*
X234136380Y-93702238D01*
X234088761Y-93749857D01*
X234041142Y-93773666D01*
X233945904Y-93797476D01*
X233874476Y-93797476D01*
X233779238Y-93773666D01*
X233731619Y-93749857D01*
X233684000Y-93702238D01*
X233660190Y-93630809D01*
X233660190Y-93583190D01*
X233684000Y-93511761D01*
X233707809Y-93487952D01*
X239907000Y-94487952D02*
X239883190Y-94535571D01*
X239883190Y-94607000D01*
X239907000Y-94678428D01*
X239954619Y-94726047D01*
X240002238Y-94749857D01*
X240097476Y-94773666D01*
X240168904Y-94773666D01*
X240264142Y-94749857D01*
X240311761Y-94726047D01*
X240359380Y-94678428D01*
X240383190Y-94607000D01*
X240383190Y-94559380D01*
X240359380Y-94487952D01*
X240335571Y-94464142D01*
X240168904Y-94464142D01*
X240168904Y-94559380D01*
X240383190Y-94249857D02*
X239883190Y-94249857D01*
X240383190Y-93964142D01*
X239883190Y-93964142D01*
X240383190Y-93726047D02*
X239883190Y-93726047D01*
X239883190Y-93607000D01*
X239907000Y-93535571D01*
X239954619Y-93487952D01*
X240002238Y-93464142D01*
X240097476Y-93440333D01*
X240168904Y-93440333D01*
X240264142Y-93464142D01*
X240311761Y-93487952D01*
X240359380Y-93535571D01*
X240383190Y-93607000D01*
X240383190Y-93726047D01*
X240359380Y-97472428D02*
X240383190Y-97520047D01*
X240383190Y-97615285D01*
X240359380Y-97662904D01*
X240311761Y-97686714D01*
X240121285Y-97686714D01*
X240073666Y-97662904D01*
X240049857Y-97615285D01*
X240049857Y-97520047D01*
X240073666Y-97472428D01*
X240121285Y-97448619D01*
X240168904Y-97448619D01*
X240216523Y-97686714D01*
X240359380Y-97020047D02*
X240383190Y-97067666D01*
X240383190Y-97162904D01*
X240359380Y-97210523D01*
X240335571Y-97234333D01*
X240287952Y-97258142D01*
X240145095Y-97258142D01*
X240097476Y-97234333D01*
X240073666Y-97210523D01*
X240049857Y-97162904D01*
X240049857Y-97067666D01*
X240073666Y-97020047D01*
X240383190Y-96805761D02*
X239883190Y-96805761D01*
X240383190Y-96591476D02*
X240121285Y-96591476D01*
X240073666Y-96615285D01*
X240049857Y-96662904D01*
X240049857Y-96734333D01*
X240073666Y-96781952D01*
X240097476Y-96805761D01*
X240383190Y-96281952D02*
X240359380Y-96329571D01*
X240335571Y-96353380D01*
X240287952Y-96377190D01*
X240145095Y-96377190D01*
X240097476Y-96353380D01*
X240073666Y-96329571D01*
X240049857Y-96281952D01*
X240049857Y-96210523D01*
X240073666Y-96162904D01*
X240097476Y-96139095D01*
X240145095Y-96115285D01*
X240287952Y-96115285D01*
X240335571Y-96139095D01*
X240359380Y-96162904D01*
X240383190Y-96210523D01*
X240383190Y-96281952D01*
X233572857Y-97623238D02*
X233572857Y-97432761D01*
X233406190Y-97551809D02*
X233834761Y-97551809D01*
X233882380Y-97528000D01*
X233906190Y-97480380D01*
X233906190Y-97432761D01*
X233906190Y-97266095D02*
X233572857Y-97266095D01*
X233668095Y-97266095D02*
X233620476Y-97242285D01*
X233596666Y-97218476D01*
X233572857Y-97170857D01*
X233572857Y-97123238D01*
X233906190Y-96956571D02*
X233572857Y-96956571D01*
X233406190Y-96956571D02*
X233430000Y-96980380D01*
X233453809Y-96956571D01*
X233430000Y-96932761D01*
X233406190Y-96956571D01*
X233453809Y-96956571D01*
X233572857Y-96504190D02*
X233977619Y-96504190D01*
X234025238Y-96528000D01*
X234049047Y-96551809D01*
X234072857Y-96599428D01*
X234072857Y-96670857D01*
X234049047Y-96718476D01*
X233882380Y-96504190D02*
X233906190Y-96551809D01*
X233906190Y-96647047D01*
X233882380Y-96694666D01*
X233858571Y-96718476D01*
X233810952Y-96742285D01*
X233668095Y-96742285D01*
X233620476Y-96718476D01*
X233596666Y-96694666D01*
X233572857Y-96647047D01*
X233572857Y-96551809D01*
X233596666Y-96504190D01*
X216543000Y-74886333D02*
X216781095Y-74886333D01*
X216495380Y-75029190D02*
X216662047Y-74529190D01*
X216828714Y-75029190D01*
X217304904Y-74529190D02*
X217590619Y-74529190D01*
X217447761Y-75029190D02*
X217447761Y-74529190D01*
X216908095Y-72235190D02*
X216741428Y-71997095D01*
X216622380Y-72235190D02*
X216622380Y-71735190D01*
X216812857Y-71735190D01*
X216860476Y-71759000D01*
X216884285Y-71782809D01*
X216908095Y-71830428D01*
X216908095Y-71901857D01*
X216884285Y-71949476D01*
X216860476Y-71973285D01*
X216812857Y-71997095D01*
X216622380Y-71997095D01*
X217503333Y-71973285D02*
X217670000Y-71973285D01*
X217741428Y-72235190D02*
X217503333Y-72235190D01*
X217503333Y-71735190D01*
X217741428Y-71735190D01*
D11*
X225187571Y-57181857D02*
X225187571Y-57943761D01*
X224473285Y-58658047D02*
X225901857Y-58658047D01*
X223487571Y-57181857D02*
X223487571Y-57943761D01*
X222773285Y-58658047D02*
X224201857Y-58658047D01*
D12*
X251048666Y-61684666D02*
X251667714Y-61684666D01*
X250924857Y-62056095D02*
X251358190Y-60756095D01*
X251791523Y-62056095D01*
X252224857Y-61189428D02*
X252224857Y-62056095D01*
X252224857Y-61313238D02*
X252286761Y-61251333D01*
X252410571Y-61189428D01*
X252596285Y-61189428D01*
X252720095Y-61251333D01*
X252782000Y-61375142D01*
X252782000Y-62056095D01*
X253401047Y-61189428D02*
X253401047Y-62056095D01*
X253401047Y-61313238D02*
X253462952Y-61251333D01*
X253586761Y-61189428D01*
X253772476Y-61189428D01*
X253896285Y-61251333D01*
X253958190Y-61375142D01*
X253958190Y-62056095D01*
X254453428Y-61189428D02*
X254762952Y-62056095D01*
X255072476Y-61189428D02*
X254762952Y-62056095D01*
X254639142Y-62365619D01*
X254577238Y-62427523D01*
X254453428Y-62489428D01*
X256434380Y-60756095D02*
X256743904Y-62056095D01*
X256991523Y-61127523D01*
X257239142Y-62056095D01*
X257548666Y-60756095D01*
X258601047Y-62056095D02*
X258601047Y-61375142D01*
X258539142Y-61251333D01*
X258415333Y-61189428D01*
X258167714Y-61189428D01*
X258043904Y-61251333D01*
X258601047Y-61994190D02*
X258477238Y-62056095D01*
X258167714Y-62056095D01*
X258043904Y-61994190D01*
X257982000Y-61870380D01*
X257982000Y-61746571D01*
X258043904Y-61622761D01*
X258167714Y-61560857D01*
X258477238Y-61560857D01*
X258601047Y-61498952D01*
X259220095Y-61189428D02*
X259220095Y-62056095D01*
X259220095Y-61313238D02*
X259282000Y-61251333D01*
X259405809Y-61189428D01*
X259591523Y-61189428D01*
X259715333Y-61251333D01*
X259777238Y-61375142D01*
X259777238Y-62056095D01*
X260953428Y-61189428D02*
X260953428Y-62241809D01*
X260891523Y-62365619D01*
X260829619Y-62427523D01*
X260705809Y-62489428D01*
X260520095Y-62489428D01*
X260396285Y-62427523D01*
X260953428Y-61994190D02*
X260829619Y-62056095D01*
X260582000Y-62056095D01*
X260458190Y-61994190D01*
X260396285Y-61932285D01*
X260334380Y-61808476D01*
X260334380Y-61437047D01*
X260396285Y-61313238D01*
X260458190Y-61251333D01*
X260582000Y-61189428D01*
X260829619Y-61189428D01*
X260953428Y-61251333D01*
X248002571Y-59144666D02*
X248621619Y-59144666D01*
X247878761Y-59516095D02*
X248312095Y-58216095D01*
X248745428Y-59516095D01*
X249178761Y-58649428D02*
X249178761Y-59516095D01*
X249178761Y-58773238D02*
X249240666Y-58711333D01*
X249364476Y-58649428D01*
X249550190Y-58649428D01*
X249674000Y-58711333D01*
X249735904Y-58835142D01*
X249735904Y-59516095D01*
X250169238Y-58649428D02*
X250664476Y-58649428D01*
X250354952Y-58216095D02*
X250354952Y-59330380D01*
X250416857Y-59454190D01*
X250540666Y-59516095D01*
X250664476Y-59516095D01*
X251097809Y-59516095D02*
X251097809Y-58216095D01*
X251654952Y-59516095D02*
X251654952Y-58835142D01*
X251593047Y-58711333D01*
X251469238Y-58649428D01*
X251283523Y-58649428D01*
X251159714Y-58711333D01*
X251097809Y-58773238D01*
X252459714Y-59516095D02*
X252335904Y-59454190D01*
X252274000Y-59392285D01*
X252212095Y-59268476D01*
X252212095Y-58897047D01*
X252274000Y-58773238D01*
X252335904Y-58711333D01*
X252459714Y-58649428D01*
X252645428Y-58649428D01*
X252769238Y-58711333D01*
X252831142Y-58773238D01*
X252893047Y-58897047D01*
X252893047Y-59268476D01*
X252831142Y-59392285D01*
X252769238Y-59454190D01*
X252645428Y-59516095D01*
X252459714Y-59516095D01*
X253450190Y-58649428D02*
X253450190Y-59516095D01*
X253450190Y-58773238D02*
X253512095Y-58711333D01*
X253635904Y-58649428D01*
X253821619Y-58649428D01*
X253945428Y-58711333D01*
X254007333Y-58835142D01*
X254007333Y-59516095D01*
X254502571Y-58649428D02*
X254812095Y-59516095D01*
X255121619Y-58649428D02*
X254812095Y-59516095D01*
X254688285Y-59825619D01*
X254626380Y-59887523D01*
X254502571Y-59949428D01*
X257040666Y-58835142D02*
X257226380Y-58897047D01*
X257288285Y-58958952D01*
X257350190Y-59082761D01*
X257350190Y-59268476D01*
X257288285Y-59392285D01*
X257226380Y-59454190D01*
X257102571Y-59516095D01*
X256607333Y-59516095D01*
X256607333Y-58216095D01*
X257040666Y-58216095D01*
X257164476Y-58278000D01*
X257226380Y-58339904D01*
X257288285Y-58463714D01*
X257288285Y-58587523D01*
X257226380Y-58711333D01*
X257164476Y-58773238D01*
X257040666Y-58835142D01*
X256607333Y-58835142D01*
X258402571Y-59454190D02*
X258278761Y-59516095D01*
X258031142Y-59516095D01*
X257907333Y-59454190D01*
X257845428Y-59330380D01*
X257845428Y-58835142D01*
X257907333Y-58711333D01*
X258031142Y-58649428D01*
X258278761Y-58649428D01*
X258402571Y-58711333D01*
X258464476Y-58835142D01*
X258464476Y-58958952D01*
X257845428Y-59082761D01*
X259021619Y-59516095D02*
X259021619Y-58649428D01*
X259021619Y-58897047D02*
X259083523Y-58773238D01*
X259145428Y-58711333D01*
X259269238Y-58649428D01*
X259393047Y-58649428D01*
X259826380Y-59516095D02*
X259826380Y-58216095D01*
X259826380Y-58711333D02*
X259950190Y-58649428D01*
X260197809Y-58649428D01*
X260321619Y-58711333D01*
X260383523Y-58773238D01*
X260445428Y-58897047D01*
X260445428Y-59268476D01*
X260383523Y-59392285D01*
X260321619Y-59454190D01*
X260197809Y-59516095D01*
X259950190Y-59516095D01*
X259826380Y-59454190D01*
X261559714Y-59516095D02*
X261559714Y-58835142D01*
X261497809Y-58711333D01*
X261374000Y-58649428D01*
X261126380Y-58649428D01*
X261002571Y-58711333D01*
X261559714Y-59454190D02*
X261435904Y-59516095D01*
X261126380Y-59516095D01*
X261002571Y-59454190D01*
X260940666Y-59330380D01*
X260940666Y-59206571D01*
X261002571Y-59082761D01*
X261126380Y-59020857D01*
X261435904Y-59020857D01*
X261559714Y-58958952D01*
X262178761Y-59516095D02*
X262178761Y-58649428D01*
X262178761Y-58897047D02*
X262240666Y-58773238D01*
X262302571Y-58711333D01*
X262426380Y-58649428D01*
X262550190Y-58649428D01*
X262983523Y-59516095D02*
X262983523Y-58649428D01*
X262983523Y-58216095D02*
X262921619Y-58278000D01*
X262983523Y-58339904D01*
X263045428Y-58278000D01*
X262983523Y-58216095D01*
X262983523Y-58339904D01*
D13*
X217103428Y-95952571D02*
X217960571Y-95952571D01*
X217532000Y-97452571D02*
X217532000Y-95952571D01*
X218674857Y-97452571D02*
X218532000Y-97381142D01*
X218460571Y-97309714D01*
X218389142Y-97166857D01*
X218389142Y-96738285D01*
X218460571Y-96595428D01*
X218532000Y-96524000D01*
X218674857Y-96452571D01*
X218889142Y-96452571D01*
X219032000Y-96524000D01*
X219103428Y-96595428D01*
X219174857Y-96738285D01*
X219174857Y-97166857D01*
X219103428Y-97309714D01*
X219032000Y-97381142D01*
X218889142Y-97452571D01*
X218674857Y-97452571D01*
X220746285Y-96452571D02*
X221317714Y-96452571D01*
X220960571Y-95952571D02*
X220960571Y-97238285D01*
X221032000Y-97381142D01*
X221174857Y-97452571D01*
X221317714Y-97452571D01*
X221817714Y-97452571D02*
X221817714Y-95952571D01*
X222460571Y-97452571D02*
X222460571Y-96666857D01*
X222389142Y-96524000D01*
X222246285Y-96452571D01*
X222032000Y-96452571D01*
X221889142Y-96524000D01*
X221817714Y-96595428D01*
X223746285Y-97381142D02*
X223603428Y-97452571D01*
X223317714Y-97452571D01*
X223174857Y-97381142D01*
X223103428Y-97238285D01*
X223103428Y-96666857D01*
X223174857Y-96524000D01*
X223317714Y-96452571D01*
X223603428Y-96452571D01*
X223746285Y-96524000D01*
X223817714Y-96666857D01*
X223817714Y-96809714D01*
X223103428Y-96952571D01*
X225532000Y-97381142D02*
X225674857Y-97452571D01*
X225960571Y-97452571D01*
X226103428Y-97381142D01*
X226174857Y-97238285D01*
X226174857Y-97166857D01*
X226103428Y-97024000D01*
X225960571Y-96952571D01*
X225746285Y-96952571D01*
X225603428Y-96881142D01*
X225532000Y-96738285D01*
X225532000Y-96666857D01*
X225603428Y-96524000D01*
X225746285Y-96452571D01*
X225960571Y-96452571D01*
X226103428Y-96524000D01*
X226817714Y-97452571D02*
X226817714Y-95952571D01*
X226960571Y-96881142D02*
X227389142Y-97452571D01*
X227389142Y-96452571D02*
X226817714Y-97024000D01*
X228032000Y-97452571D02*
X228032000Y-96452571D01*
X228032000Y-95952571D02*
X227960571Y-96024000D01*
X228032000Y-96095428D01*
X228103428Y-96024000D01*
X228032000Y-95952571D01*
X228032000Y-96095428D01*
X229317714Y-97381142D02*
X229174857Y-97452571D01*
X228889142Y-97452571D01*
X228746285Y-97381142D01*
X228674857Y-97238285D01*
X228674857Y-96666857D01*
X228746285Y-96524000D01*
X228889142Y-96452571D01*
X229174857Y-96452571D01*
X229317714Y-96524000D01*
X229389142Y-96666857D01*
X229389142Y-96809714D01*
X228674857Y-96952571D01*
X229960571Y-97381142D02*
X230103428Y-97452571D01*
X230389142Y-97452571D01*
X230532000Y-97381142D01*
X230603428Y-97238285D01*
X230603428Y-97166857D01*
X230532000Y-97024000D01*
X230389142Y-96952571D01*
X230174857Y-96952571D01*
X230032000Y-96881142D01*
X229960571Y-96738285D01*
X229960571Y-96666857D01*
X230032000Y-96524000D01*
X230174857Y-96452571D01*
X230389142Y-96452571D01*
X230532000Y-96524000D01*
X231246285Y-97309714D02*
X231317714Y-97381142D01*
X231246285Y-97452571D01*
X231174857Y-97381142D01*
X231246285Y-97309714D01*
X231246285Y-97452571D01*
X231246285Y-96881142D02*
X231174857Y-96024000D01*
X231246285Y-95952571D01*
X231317714Y-96024000D01*
X231246285Y-96881142D01*
X231246285Y-95952571D01*
D14*
X241291504Y-53216133D02*
X242243885Y-53216133D01*
X241101028Y-53787561D02*
X241767695Y-51787561D01*
X242434361Y-53787561D01*
X243005790Y-53216133D02*
X243958171Y-53216133D01*
X242815314Y-53787561D02*
X243481980Y-51787561D01*
X244148647Y-53787561D01*
X246148647Y-53978038D02*
X245958171Y-53882800D01*
X245767695Y-53692323D01*
X245481980Y-53406609D01*
X245291504Y-53311371D01*
X245101028Y-53311371D01*
X245196266Y-53787561D02*
X245005790Y-53692323D01*
X244815314Y-53501847D01*
X244720076Y-53120895D01*
X244720076Y-52454228D01*
X244815314Y-52073276D01*
X245005790Y-51882800D01*
X245196266Y-51787561D01*
X245577219Y-51787561D01*
X245767695Y-51882800D01*
X245958171Y-52073276D01*
X246053409Y-52454228D01*
X246053409Y-53120895D01*
X245958171Y-53501847D01*
X245767695Y-53692323D01*
X245577219Y-53787561D01*
X245196266Y-53787561D01*
X247767695Y-52454228D02*
X247767695Y-53787561D01*
X246910552Y-52454228D02*
X246910552Y-53501847D01*
X247005790Y-53692323D01*
X247196266Y-53787561D01*
X247481980Y-53787561D01*
X247672457Y-53692323D01*
X247767695Y-53597085D01*
X249577219Y-53787561D02*
X249577219Y-52739942D01*
X249481980Y-52549466D01*
X249291504Y-52454228D01*
X248910552Y-52454228D01*
X248720076Y-52549466D01*
X249577219Y-53692323D02*
X249386742Y-53787561D01*
X248910552Y-53787561D01*
X248720076Y-53692323D01*
X248624838Y-53501847D01*
X248624838Y-53311371D01*
X248720076Y-53120895D01*
X248910552Y-53025657D01*
X249386742Y-53025657D01*
X249577219Y-52930419D01*
X251386742Y-53787561D02*
X251386742Y-51787561D01*
X251386742Y-53692323D02*
X251196266Y-53787561D01*
X250815314Y-53787561D01*
X250624838Y-53692323D01*
X250529600Y-53597085D01*
X250434361Y-53406609D01*
X250434361Y-52835180D01*
X250529600Y-52644704D01*
X250624838Y-52549466D01*
X250815314Y-52454228D01*
X251196266Y-52454228D01*
X251386742Y-52549466D01*
X253672457Y-51787561D02*
X254910552Y-51787561D01*
X254243885Y-52549466D01*
X254529600Y-52549466D01*
X254720076Y-52644704D01*
X254815314Y-52739942D01*
X254910552Y-52930419D01*
X254910552Y-53406609D01*
X254815314Y-53597085D01*
X254720076Y-53692323D01*
X254529600Y-53787561D01*
X253958171Y-53787561D01*
X253767695Y-53692323D01*
X253672457Y-53597085D01*
X255767695Y-53597085D02*
X255862933Y-53692323D01*
X255767695Y-53787561D01*
X255672457Y-53692323D01*
X255767695Y-53597085D01*
X255767695Y-53787561D01*
X257101028Y-51787561D02*
X257291504Y-51787561D01*
X257481980Y-51882800D01*
X257577219Y-51978038D01*
X257672457Y-52168514D01*
X257767695Y-52549466D01*
X257767695Y-53025657D01*
X257672457Y-53406609D01*
X257577219Y-53597085D01*
X257481980Y-53692323D01*
X257291504Y-53787561D01*
X257101028Y-53787561D01*
X256910552Y-53692323D01*
X256815314Y-53597085D01*
X256720076Y-53406609D01*
X256624838Y-53025657D01*
X256624838Y-52549466D01*
X256720076Y-52168514D01*
X256815314Y-51978038D01*
X256910552Y-51882800D01*
X257101028Y-51787561D01*
D15*
X258766000Y-70806000D02*
X260096000Y-70806000D01*
X258766000Y-72136000D02*
X258766000Y-70806000D01*
X261366000Y-70806000D02*
X263966000Y-70806000D01*
X261366000Y-73406000D02*
X261366000Y-70806000D01*
X258766000Y-73406000D02*
X261366000Y-73406000D01*
X263966000Y-70806000D02*
X263966000Y-78546000D01*
X258766000Y-73406000D02*
X258766000Y-78546000D01*
X258766000Y-78546000D02*
X263966000Y-78546000D01*
D16*
X243342280Y-77293000D02*
G75*
G03X243342280Y-77293000I-63280J0D01*
G01*
X242961000Y-73781000D02*
X242961000Y-76781000D01*
X247961000Y-76781000D02*
X247961000Y-73781000D01*
D15*
X215452000Y-78546000D02*
X214122000Y-78546000D01*
X215452000Y-77216000D02*
X215452000Y-78546000D01*
X212852000Y-78546000D02*
X210252000Y-78546000D01*
X212852000Y-75946000D02*
X212852000Y-78546000D01*
X215452000Y-75946000D02*
X212852000Y-75946000D01*
X210252000Y-78546000D02*
X210252000Y-70806000D01*
X215452000Y-75946000D02*
X215452000Y-70806000D01*
X215452000Y-70806000D02*
X210252000Y-70806000D01*
X245388000Y-87972000D02*
X246388000Y-87972000D01*
X246388000Y-86272000D02*
X245388000Y-86272000D01*
X222580000Y-80358000D02*
X214680000Y-80358000D01*
X222580000Y-85758000D02*
X222580000Y-80358000D01*
X214680000Y-85758000D02*
X222580000Y-85758000D01*
D10*
X240170000Y-54590000D02*
X240670000Y-54590000D01*
X240170000Y-55090000D02*
X240170000Y-54590000D01*
X240170000Y-64790000D02*
X240670000Y-64790000D01*
X240170000Y-64290000D02*
X240170000Y-64790000D01*
X244970000Y-64190000D02*
X245870000Y-64190000D01*
X244970000Y-64290000D02*
X244970000Y-64190000D01*
X244570000Y-64690000D02*
X244970000Y-64290000D01*
X244170000Y-64690000D02*
X244570000Y-64690000D01*
X244970000Y-54590000D02*
X244970000Y-54990000D01*
X244570000Y-54590000D02*
X244970000Y-54590000D01*
D15*
X212373936Y-68474000D02*
X213578064Y-68474000D01*
X212373936Y-66654000D02*
X213578064Y-66654000D01*
X248006500Y-83209000D02*
X248006500Y-84209000D01*
X249706500Y-84209000D02*
X249706500Y-83209000D01*
X255164000Y-92045064D02*
X255164000Y-90840936D01*
X253344000Y-92045064D02*
X253344000Y-90840936D01*
D17*
X243897000Y-83070000D02*
G75*
G03X243897000Y-83070000I-125000J0D01*
G01*
D11*
X247372000Y-85070000D02*
X246872000Y-85070000D01*
X247372000Y-85070000D02*
X247372000Y-85070000D01*
X244372000Y-85070000D02*
X244872000Y-85070000D01*
X244372000Y-85070000D02*
X244372000Y-85070000D01*
X247372000Y-82570000D02*
X246872000Y-82570000D01*
X247372000Y-82570000D02*
X247372000Y-82570000D01*
X244372000Y-82570000D02*
X244872000Y-82570000D01*
X244372000Y-82570000D02*
X244372000Y-82570000D01*
X244372000Y-82570000D02*
X244372000Y-82570000D01*
D15*
X220412000Y-56448000D02*
X220412000Y-55118000D01*
X221742000Y-56448000D02*
X220412000Y-56448000D01*
X220412000Y-53848000D02*
X220412000Y-51248000D01*
X223012000Y-53848000D02*
X220412000Y-53848000D01*
X223012000Y-56448000D02*
X223012000Y-53848000D01*
X220412000Y-51248000D02*
X228152000Y-51248000D01*
X223012000Y-56448000D02*
X228152000Y-56448000D01*
X228152000Y-56448000D02*
X228152000Y-51248000D01*
X236145000Y-59509922D02*
X236145000Y-60027078D01*
X237565000Y-59509922D02*
X237565000Y-60027078D01*
X232040500Y-60027078D02*
X232040500Y-59509922D01*
X230620500Y-60027078D02*
X230620500Y-59509922D01*
X229033000Y-86941922D02*
X229033000Y-87459078D01*
X230453000Y-86941922D02*
X230453000Y-87459078D01*
X226874000Y-86941922D02*
X226874000Y-87459078D01*
X228294000Y-86941922D02*
X228294000Y-87459078D01*
X230643500Y-54424078D02*
X230643500Y-53906922D01*
X229223500Y-54424078D02*
X229223500Y-53906922D01*
X243511000Y-69972422D02*
X243511000Y-70489578D01*
X244931000Y-69972422D02*
X244931000Y-70489578D01*
X249861000Y-69972422D02*
X249861000Y-70489578D01*
X251281000Y-69972422D02*
X251281000Y-70489578D01*
X229373500Y-59997078D02*
X229373500Y-59479922D01*
X227953500Y-59997078D02*
X227953500Y-59479922D01*
D18*
X220803000Y-65274000D02*
G75*
G03X220803000Y-65274000I-200000J0D01*
G01*
D11*
X222053000Y-72424000D02*
X222053000Y-66124000D01*
X228353000Y-72424000D02*
X222053000Y-72424000D01*
X228353000Y-66124000D02*
X228353000Y-72424000D01*
X222053000Y-66124000D02*
X228353000Y-66124000D01*
D15*
X234382000Y-92904000D02*
X235712000Y-92904000D01*
X234382000Y-94234000D02*
X234382000Y-92904000D01*
X236982000Y-92904000D02*
X239582000Y-92904000D01*
X236982000Y-95504000D02*
X236982000Y-92904000D01*
X234382000Y-95504000D02*
X236982000Y-95504000D01*
X239582000Y-92904000D02*
X239582000Y-98104000D01*
X234382000Y-95504000D02*
X234382000Y-98104000D01*
X234382000Y-98104000D02*
X239582000Y-98104000D01*
D11*
X235405000Y-80563000D02*
X236405000Y-80563000D01*
X236755000Y-82788000D02*
X236755000Y-80788000D01*
X236955000Y-82788000D02*
X236755000Y-82788000D01*
X236955000Y-80788000D02*
X236955000Y-82788000D01*
X236755000Y-80788000D02*
X236955000Y-80788000D01*
X235339000Y-83723000D02*
X236339000Y-83723000D01*
X236689000Y-85948000D02*
X236689000Y-83948000D01*
X236889000Y-85948000D02*
X236689000Y-85948000D01*
X236889000Y-83948000D02*
X236889000Y-85948000D01*
X236689000Y-83948000D02*
X236889000Y-83948000D01*
X236694000Y-87123000D02*
X236894000Y-87123000D01*
X236894000Y-87123000D02*
X236894000Y-89123000D01*
X236894000Y-89123000D02*
X236694000Y-89123000D01*
X236694000Y-89123000D02*
X236694000Y-87123000D01*
X235344000Y-86898000D02*
X236344000Y-86898000D01*
X235471000Y-77373000D02*
X236471000Y-77373000D01*
X236821000Y-79598000D02*
X236821000Y-77598000D01*
X237021000Y-79598000D02*
X236821000Y-79598000D01*
X237021000Y-77598000D02*
X237021000Y-79598000D01*
X236821000Y-77598000D02*
X237021000Y-77598000D01*
D15*
X230493000Y-81423000D02*
X230493000Y-84623000D01*
X228993000Y-84623000D02*
X228993000Y-81423000D01*
X228993000Y-84623000D02*
X230493000Y-84623000D01*
X228334000Y-81423000D02*
X228334000Y-84623000D01*
X226834000Y-84623000D02*
X226834000Y-81423000D01*
X226834000Y-84623000D02*
X228334000Y-84623000D01*
X249037000Y-69455000D02*
X248107000Y-69455000D01*
X245877000Y-69455000D02*
X246807000Y-69455000D01*
X245877000Y-69455000D02*
X245877000Y-71615000D01*
X249037000Y-69455000D02*
X249037000Y-70915000D01*
X242626000Y-69471000D02*
X241696000Y-69471000D01*
X239466000Y-69471000D02*
X240396000Y-69471000D01*
X239466000Y-69471000D02*
X239466000Y-71631000D01*
X242626000Y-69471000D02*
X242626000Y-70931000D01*
D11*
X250900000Y-91318000D02*
X250900000Y-95168000D01*
X250900000Y-95168000D02*
X244400000Y-95168000D01*
X244400000Y-95168000D02*
X244400000Y-91318000D01*
X244400000Y-91318000D02*
X250900000Y-91318000D01*
X250775000Y-89218000D02*
X250775000Y-90968000D01*
D19*
X261032666Y-69258380D02*
X261032666Y-69972666D01*
X260985047Y-70115523D01*
X260889809Y-70210761D01*
X260746952Y-70258380D01*
X260651714Y-70258380D01*
X261413619Y-69258380D02*
X262032666Y-69258380D01*
X261699333Y-69639333D01*
X261842190Y-69639333D01*
X261937428Y-69686952D01*
X261985047Y-69734571D01*
X262032666Y-69829809D01*
X262032666Y-70067904D01*
X261985047Y-70163142D01*
X261937428Y-70210761D01*
X261842190Y-70258380D01*
X261556476Y-70258380D01*
X261461238Y-70210761D01*
X261413619Y-70163142D01*
D16*
X241874523Y-76423761D02*
X240604523Y-76423761D01*
X241753571Y-75093285D02*
X241814047Y-75153761D01*
X241874523Y-75335190D01*
X241874523Y-75456142D01*
X241814047Y-75637571D01*
X241693095Y-75758523D01*
X241572142Y-75819000D01*
X241330238Y-75879476D01*
X241148809Y-75879476D01*
X240906904Y-75819000D01*
X240785952Y-75758523D01*
X240665000Y-75637571D01*
X240604523Y-75456142D01*
X240604523Y-75335190D01*
X240665000Y-75153761D01*
X240725476Y-75093285D01*
X240725476Y-74609476D02*
X240665000Y-74549000D01*
X240604523Y-74428047D01*
X240604523Y-74125666D01*
X240665000Y-74004714D01*
X240725476Y-73944238D01*
X240846428Y-73883761D01*
X240967380Y-73883761D01*
X241148809Y-73944238D01*
X241874523Y-74669952D01*
X241874523Y-73883761D01*
D19*
X212518666Y-78998380D02*
X212518666Y-79712666D01*
X212471047Y-79855523D01*
X212375809Y-79950761D01*
X212232952Y-79998380D01*
X212137714Y-79998380D01*
X212947238Y-79093619D02*
X212994857Y-79046000D01*
X213090095Y-78998380D01*
X213328190Y-78998380D01*
X213423428Y-79046000D01*
X213471047Y-79093619D01*
X213518666Y-79188857D01*
X213518666Y-79284095D01*
X213471047Y-79426952D01*
X212899619Y-79998380D01*
X213518666Y-79998380D01*
X249293142Y-87479142D02*
X249245523Y-87526761D01*
X249102666Y-87574380D01*
X249007428Y-87574380D01*
X248864571Y-87526761D01*
X248769333Y-87431523D01*
X248721714Y-87336285D01*
X248674095Y-87145809D01*
X248674095Y-87002952D01*
X248721714Y-86812476D01*
X248769333Y-86717238D01*
X248864571Y-86622000D01*
X249007428Y-86574380D01*
X249102666Y-86574380D01*
X249245523Y-86622000D01*
X249293142Y-86669619D01*
X250245523Y-87574380D02*
X249674095Y-87574380D01*
X249959809Y-87574380D02*
X249959809Y-86574380D01*
X249864571Y-86717238D01*
X249769333Y-86812476D01*
X249674095Y-86860095D01*
X250626476Y-86669619D02*
X250674095Y-86622000D01*
X250769333Y-86574380D01*
X251007428Y-86574380D01*
X251102666Y-86622000D01*
X251150285Y-86669619D01*
X251197904Y-86764857D01*
X251197904Y-86860095D01*
X251150285Y-87002952D01*
X250578857Y-87574380D01*
X251197904Y-87574380D01*
X217903809Y-86734190D02*
X217903809Y-87210380D01*
X217570476Y-86210380D02*
X217903809Y-86734190D01*
X218237142Y-86210380D01*
X219094285Y-87210380D02*
X218522857Y-87210380D01*
X218808571Y-87210380D02*
X218808571Y-86210380D01*
X218713333Y-86353238D01*
X218618095Y-86448476D01*
X218522857Y-86496095D01*
X214733142Y-88526857D02*
X214780761Y-88574476D01*
X214828380Y-88717333D01*
X214828380Y-88812571D01*
X214780761Y-88955428D01*
X214685523Y-89050666D01*
X214590285Y-89098285D01*
X214399809Y-89145904D01*
X214256952Y-89145904D01*
X214066476Y-89098285D01*
X213971238Y-89050666D01*
X213876000Y-88955428D01*
X213828380Y-88812571D01*
X213828380Y-88717333D01*
X213876000Y-88574476D01*
X213923619Y-88526857D01*
X214828380Y-87574476D02*
X214828380Y-88145904D01*
X214828380Y-87860190D02*
X213828380Y-87860190D01*
X213971238Y-87955428D01*
X214066476Y-88050666D01*
X214114095Y-88145904D01*
X214828380Y-86622095D02*
X214828380Y-87193523D01*
X214828380Y-86907809D02*
X213828380Y-86907809D01*
X213971238Y-87003047D01*
X214066476Y-87098285D01*
X214114095Y-87193523D01*
X222861142Y-88526857D02*
X222908761Y-88574476D01*
X222956380Y-88717333D01*
X222956380Y-88812571D01*
X222908761Y-88955428D01*
X222813523Y-89050666D01*
X222718285Y-89098285D01*
X222527809Y-89145904D01*
X222384952Y-89145904D01*
X222194476Y-89098285D01*
X222099238Y-89050666D01*
X222004000Y-88955428D01*
X221956380Y-88812571D01*
X221956380Y-88717333D01*
X222004000Y-88574476D01*
X222051619Y-88526857D01*
X222956380Y-87574476D02*
X222956380Y-88145904D01*
X222956380Y-87860190D02*
X221956380Y-87860190D01*
X222099238Y-87955428D01*
X222194476Y-88050666D01*
X222242095Y-88145904D01*
X221956380Y-86955428D02*
X221956380Y-86860190D01*
X222004000Y-86764952D01*
X222051619Y-86717333D01*
X222146857Y-86669714D01*
X222337333Y-86622095D01*
X222575428Y-86622095D01*
X222765904Y-86669714D01*
X222861142Y-86717333D01*
X222908761Y-86764952D01*
X222956380Y-86860190D01*
X222956380Y-86955428D01*
X222908761Y-87050666D01*
X222861142Y-87098285D01*
X222765904Y-87145904D01*
X222575428Y-87193523D01*
X222337333Y-87193523D01*
X222146857Y-87145904D01*
X222051619Y-87098285D01*
X222004000Y-87050666D01*
X221956380Y-86955428D01*
X246837295Y-63739780D02*
X246837295Y-64549304D01*
X246884914Y-64644542D01*
X246932533Y-64692161D01*
X247027771Y-64739780D01*
X247218247Y-64739780D01*
X247313485Y-64692161D01*
X247361104Y-64644542D01*
X247408723Y-64549304D01*
X247408723Y-63739780D01*
X247837295Y-63835019D02*
X247884914Y-63787400D01*
X247980152Y-63739780D01*
X248218247Y-63739780D01*
X248313485Y-63787400D01*
X248361104Y-63835019D01*
X248408723Y-63930257D01*
X248408723Y-64025495D01*
X248361104Y-64168352D01*
X247789676Y-64739780D01*
X248408723Y-64739780D01*
X212809333Y-66101142D02*
X212761714Y-66148761D01*
X212618857Y-66196380D01*
X212523619Y-66196380D01*
X212380761Y-66148761D01*
X212285523Y-66053523D01*
X212237904Y-65958285D01*
X212190285Y-65767809D01*
X212190285Y-65624952D01*
X212237904Y-65434476D01*
X212285523Y-65339238D01*
X212380761Y-65244000D01*
X212523619Y-65196380D01*
X212618857Y-65196380D01*
X212761714Y-65244000D01*
X212809333Y-65291619D01*
X213714095Y-65196380D02*
X213237904Y-65196380D01*
X213190285Y-65672571D01*
X213237904Y-65624952D01*
X213333142Y-65577333D01*
X213571238Y-65577333D01*
X213666476Y-65624952D01*
X213714095Y-65672571D01*
X213761714Y-65767809D01*
X213761714Y-66005904D01*
X213714095Y-66101142D01*
X213666476Y-66148761D01*
X213571238Y-66196380D01*
X213333142Y-66196380D01*
X213237904Y-66148761D01*
X213190285Y-66101142D01*
X251055142Y-83875666D02*
X251102761Y-83923285D01*
X251150380Y-84066142D01*
X251150380Y-84161380D01*
X251102761Y-84304238D01*
X251007523Y-84399476D01*
X250912285Y-84447095D01*
X250721809Y-84494714D01*
X250578952Y-84494714D01*
X250388476Y-84447095D01*
X250293238Y-84399476D01*
X250198000Y-84304238D01*
X250150380Y-84161380D01*
X250150380Y-84066142D01*
X250198000Y-83923285D01*
X250245619Y-83875666D01*
X250150380Y-83018523D02*
X250150380Y-83209000D01*
X250198000Y-83304238D01*
X250245619Y-83351857D01*
X250388476Y-83447095D01*
X250578952Y-83494714D01*
X250959904Y-83494714D01*
X251055142Y-83447095D01*
X251102761Y-83399476D01*
X251150380Y-83304238D01*
X251150380Y-83113761D01*
X251102761Y-83018523D01*
X251055142Y-82970904D01*
X250959904Y-82923285D01*
X250721809Y-82923285D01*
X250626571Y-82970904D01*
X250578952Y-83018523D01*
X250531333Y-83113761D01*
X250531333Y-83304238D01*
X250578952Y-83399476D01*
X250626571Y-83447095D01*
X250721809Y-83494714D01*
X254087333Y-88495142D02*
X254039714Y-88542761D01*
X253896857Y-88590380D01*
X253801619Y-88590380D01*
X253658761Y-88542761D01*
X253563523Y-88447523D01*
X253515904Y-88352285D01*
X253468285Y-88161809D01*
X253468285Y-88018952D01*
X253515904Y-87828476D01*
X253563523Y-87733238D01*
X253658761Y-87638000D01*
X253801619Y-87590380D01*
X253896857Y-87590380D01*
X254039714Y-87638000D01*
X254087333Y-87685619D01*
X254563523Y-88590380D02*
X254754000Y-88590380D01*
X254849238Y-88542761D01*
X254896857Y-88495142D01*
X254992095Y-88352285D01*
X255039714Y-88161809D01*
X255039714Y-87780857D01*
X254992095Y-87685619D01*
X254944476Y-87638000D01*
X254849238Y-87590380D01*
X254658761Y-87590380D01*
X254563523Y-87638000D01*
X254515904Y-87685619D01*
X254468285Y-87780857D01*
X254468285Y-88018952D01*
X254515904Y-88114190D01*
X254563523Y-88161809D01*
X254658761Y-88209428D01*
X254849238Y-88209428D01*
X254944476Y-88161809D01*
X254992095Y-88114190D01*
X255039714Y-88018952D01*
D16*
X244378238Y-82108523D02*
X244378238Y-80838523D01*
X245708714Y-81987571D02*
X245648238Y-82048047D01*
X245466809Y-82108523D01*
X245345857Y-82108523D01*
X245164428Y-82048047D01*
X245043476Y-81927095D01*
X244983000Y-81806142D01*
X244922523Y-81564238D01*
X244922523Y-81382809D01*
X244983000Y-81140904D01*
X245043476Y-81019952D01*
X245164428Y-80899000D01*
X245345857Y-80838523D01*
X245466809Y-80838523D01*
X245648238Y-80899000D01*
X245708714Y-80959476D01*
X246918238Y-82108523D02*
X246192523Y-82108523D01*
X246555380Y-82108523D02*
X246555380Y-80838523D01*
X246434428Y-81019952D01*
X246313476Y-81140904D01*
X246192523Y-81201380D01*
D19*
X218864380Y-54181333D02*
X219578666Y-54181333D01*
X219721523Y-54228952D01*
X219816761Y-54324190D01*
X219864380Y-54467047D01*
X219864380Y-54562285D01*
X219864380Y-53181333D02*
X219864380Y-53752761D01*
X219864380Y-53467047D02*
X218864380Y-53467047D01*
X219007238Y-53562285D01*
X219102476Y-53657523D01*
X219150095Y-53752761D01*
X236815333Y-57602380D02*
X236482000Y-57126190D01*
X236243904Y-57602380D02*
X236243904Y-56602380D01*
X236624857Y-56602380D01*
X236720095Y-56650000D01*
X236767714Y-56697619D01*
X236815333Y-56792857D01*
X236815333Y-56935714D01*
X236767714Y-57030952D01*
X236720095Y-57078571D01*
X236624857Y-57126190D01*
X236243904Y-57126190D01*
X237767714Y-57602380D02*
X237196285Y-57602380D01*
X237482000Y-57602380D02*
X237482000Y-56602380D01*
X237386761Y-56745238D01*
X237291523Y-56840476D01*
X237196285Y-56888095D01*
X231227333Y-57602380D02*
X230894000Y-57126190D01*
X230655904Y-57602380D02*
X230655904Y-56602380D01*
X231036857Y-56602380D01*
X231132095Y-56650000D01*
X231179714Y-56697619D01*
X231227333Y-56792857D01*
X231227333Y-56935714D01*
X231179714Y-57030952D01*
X231132095Y-57078571D01*
X231036857Y-57126190D01*
X230655904Y-57126190D01*
X231608285Y-56697619D02*
X231655904Y-56650000D01*
X231751142Y-56602380D01*
X231989238Y-56602380D01*
X232084476Y-56650000D01*
X232132095Y-56697619D01*
X232179714Y-56792857D01*
X232179714Y-56888095D01*
X232132095Y-57030952D01*
X231560666Y-57602380D01*
X232179714Y-57602380D01*
X229703333Y-90114380D02*
X229370000Y-89638190D01*
X229131904Y-90114380D02*
X229131904Y-89114380D01*
X229512857Y-89114380D01*
X229608095Y-89162000D01*
X229655714Y-89209619D01*
X229703333Y-89304857D01*
X229703333Y-89447714D01*
X229655714Y-89542952D01*
X229608095Y-89590571D01*
X229512857Y-89638190D01*
X229131904Y-89638190D01*
X230036666Y-89114380D02*
X230655714Y-89114380D01*
X230322380Y-89495333D01*
X230465238Y-89495333D01*
X230560476Y-89542952D01*
X230608095Y-89590571D01*
X230655714Y-89685809D01*
X230655714Y-89923904D01*
X230608095Y-90019142D01*
X230560476Y-90066761D01*
X230465238Y-90114380D01*
X230179523Y-90114380D01*
X230084285Y-90066761D01*
X230036666Y-90019142D01*
X227417333Y-90114380D02*
X227084000Y-89638190D01*
X226845904Y-90114380D02*
X226845904Y-89114380D01*
X227226857Y-89114380D01*
X227322095Y-89162000D01*
X227369714Y-89209619D01*
X227417333Y-89304857D01*
X227417333Y-89447714D01*
X227369714Y-89542952D01*
X227322095Y-89590571D01*
X227226857Y-89638190D01*
X226845904Y-89638190D01*
X228274476Y-89447714D02*
X228274476Y-90114380D01*
X228036380Y-89066761D02*
X227798285Y-89781047D01*
X228417333Y-89781047D01*
X232100380Y-54205166D02*
X231624190Y-54538500D01*
X232100380Y-54776595D02*
X231100380Y-54776595D01*
X231100380Y-54395642D01*
X231148000Y-54300404D01*
X231195619Y-54252785D01*
X231290857Y-54205166D01*
X231433714Y-54205166D01*
X231528952Y-54252785D01*
X231576571Y-54300404D01*
X231624190Y-54395642D01*
X231624190Y-54776595D01*
X231100380Y-53300404D02*
X231100380Y-53776595D01*
X231576571Y-53824214D01*
X231528952Y-53776595D01*
X231481333Y-53681357D01*
X231481333Y-53443261D01*
X231528952Y-53348023D01*
X231576571Y-53300404D01*
X231671809Y-53252785D01*
X231909904Y-53252785D01*
X232005142Y-53300404D01*
X232052761Y-53348023D01*
X232100380Y-53443261D01*
X232100380Y-53681357D01*
X232052761Y-53776595D01*
X232005142Y-53824214D01*
X244181333Y-68016380D02*
X243848000Y-67540190D01*
X243609904Y-68016380D02*
X243609904Y-67016380D01*
X243990857Y-67016380D01*
X244086095Y-67064000D01*
X244133714Y-67111619D01*
X244181333Y-67206857D01*
X244181333Y-67349714D01*
X244133714Y-67444952D01*
X244086095Y-67492571D01*
X243990857Y-67540190D01*
X243609904Y-67540190D01*
X245038476Y-67016380D02*
X244848000Y-67016380D01*
X244752761Y-67064000D01*
X244705142Y-67111619D01*
X244609904Y-67254476D01*
X244562285Y-67444952D01*
X244562285Y-67825904D01*
X244609904Y-67921142D01*
X244657523Y-67968761D01*
X244752761Y-68016380D01*
X244943238Y-68016380D01*
X245038476Y-67968761D01*
X245086095Y-67921142D01*
X245133714Y-67825904D01*
X245133714Y-67587809D01*
X245086095Y-67492571D01*
X245038476Y-67444952D01*
X244943238Y-67397333D01*
X244752761Y-67397333D01*
X244657523Y-67444952D01*
X244609904Y-67492571D01*
X244562285Y-67587809D01*
X250277333Y-68016380D02*
X249944000Y-67540190D01*
X249705904Y-68016380D02*
X249705904Y-67016380D01*
X250086857Y-67016380D01*
X250182095Y-67064000D01*
X250229714Y-67111619D01*
X250277333Y-67206857D01*
X250277333Y-67349714D01*
X250229714Y-67444952D01*
X250182095Y-67492571D01*
X250086857Y-67540190D01*
X249705904Y-67540190D01*
X250610666Y-67016380D02*
X251277333Y-67016380D01*
X250848761Y-68016380D01*
X227528380Y-59856666D02*
X227052190Y-60190000D01*
X227528380Y-60428095D02*
X226528380Y-60428095D01*
X226528380Y-60047142D01*
X226576000Y-59951904D01*
X226623619Y-59904285D01*
X226718857Y-59856666D01*
X226861714Y-59856666D01*
X226956952Y-59904285D01*
X227004571Y-59951904D01*
X227052190Y-60047142D01*
X227052190Y-60428095D01*
X226956952Y-59285238D02*
X226909333Y-59380476D01*
X226861714Y-59428095D01*
X226766476Y-59475714D01*
X226718857Y-59475714D01*
X226623619Y-59428095D01*
X226576000Y-59380476D01*
X226528380Y-59285238D01*
X226528380Y-59094761D01*
X226576000Y-58999523D01*
X226623619Y-58951904D01*
X226718857Y-58904285D01*
X226766476Y-58904285D01*
X226861714Y-58951904D01*
X226909333Y-58999523D01*
X226956952Y-59094761D01*
X226956952Y-59285238D01*
X227004571Y-59380476D01*
X227052190Y-59428095D01*
X227147428Y-59475714D01*
X227337904Y-59475714D01*
X227433142Y-59428095D01*
X227480761Y-59380476D01*
X227528380Y-59285238D01*
X227528380Y-59094761D01*
X227480761Y-58999523D01*
X227433142Y-58951904D01*
X227337904Y-58904285D01*
X227147428Y-58904285D01*
X227052190Y-58951904D01*
X227004571Y-58999523D01*
X226956952Y-59094761D01*
D16*
X220012380Y-61788523D02*
X220012380Y-62816619D01*
X220072857Y-62937571D01*
X220133333Y-62998047D01*
X220254285Y-63058523D01*
X220496190Y-63058523D01*
X220617142Y-62998047D01*
X220677619Y-62937571D01*
X220738095Y-62816619D01*
X220738095Y-61788523D01*
X222008095Y-63058523D02*
X221282380Y-63058523D01*
X221645238Y-63058523D02*
X221645238Y-61788523D01*
X221524285Y-61969952D01*
X221403333Y-62090904D01*
X221282380Y-62151380D01*
D19*
X236648666Y-91356380D02*
X236648666Y-92070666D01*
X236601047Y-92213523D01*
X236505809Y-92308761D01*
X236362952Y-92356380D01*
X236267714Y-92356380D01*
X237553428Y-91689714D02*
X237553428Y-92356380D01*
X237315333Y-91308761D02*
X237077238Y-92023047D01*
X237696285Y-92023047D01*
D16*
X232186238Y-82362523D02*
X232186238Y-81092523D01*
X233516714Y-82241571D02*
X233456238Y-82302047D01*
X233274809Y-82362523D01*
X233153857Y-82362523D01*
X232972428Y-82302047D01*
X232851476Y-82181095D01*
X232791000Y-82060142D01*
X232730523Y-81818238D01*
X232730523Y-81636809D01*
X232791000Y-81394904D01*
X232851476Y-81273952D01*
X232972428Y-81153000D01*
X233153857Y-81092523D01*
X233274809Y-81092523D01*
X233456238Y-81153000D01*
X233516714Y-81213476D01*
X233940047Y-81092523D02*
X234726238Y-81092523D01*
X234302904Y-81576333D01*
X234484333Y-81576333D01*
X234605285Y-81636809D01*
X234665761Y-81697285D01*
X234726238Y-81818238D01*
X234726238Y-82120619D01*
X234665761Y-82241571D01*
X234605285Y-82302047D01*
X234484333Y-82362523D01*
X234121476Y-82362523D01*
X234000523Y-82302047D01*
X233940047Y-82241571D01*
X232186238Y-85522523D02*
X232186238Y-84252523D01*
X233516714Y-85401571D02*
X233456238Y-85462047D01*
X233274809Y-85522523D01*
X233153857Y-85522523D01*
X232972428Y-85462047D01*
X232851476Y-85341095D01*
X232791000Y-85220142D01*
X232730523Y-84978238D01*
X232730523Y-84796809D01*
X232791000Y-84554904D01*
X232851476Y-84433952D01*
X232972428Y-84313000D01*
X233153857Y-84252523D01*
X233274809Y-84252523D01*
X233456238Y-84313000D01*
X233516714Y-84373476D01*
X234605285Y-84675857D02*
X234605285Y-85522523D01*
X234302904Y-84192047D02*
X234000523Y-85099190D01*
X234786714Y-85099190D01*
X232186238Y-88697523D02*
X232186238Y-87427523D01*
X233516714Y-88576571D02*
X233456238Y-88637047D01*
X233274809Y-88697523D01*
X233153857Y-88697523D01*
X232972428Y-88637047D01*
X232851476Y-88516095D01*
X232791000Y-88395142D01*
X232730523Y-88153238D01*
X232730523Y-87971809D01*
X232791000Y-87729904D01*
X232851476Y-87608952D01*
X232972428Y-87488000D01*
X233153857Y-87427523D01*
X233274809Y-87427523D01*
X233456238Y-87488000D01*
X233516714Y-87548476D01*
X234665761Y-87427523D02*
X234061000Y-87427523D01*
X234000523Y-88032285D01*
X234061000Y-87971809D01*
X234181952Y-87911333D01*
X234484333Y-87911333D01*
X234605285Y-87971809D01*
X234665761Y-88032285D01*
X234726238Y-88153238D01*
X234726238Y-88455619D01*
X234665761Y-88576571D01*
X234605285Y-88637047D01*
X234484333Y-88697523D01*
X234181952Y-88697523D01*
X234061000Y-88637047D01*
X234000523Y-88576571D01*
X232440238Y-79172523D02*
X232440238Y-77902523D01*
X233770714Y-79051571D02*
X233710238Y-79112047D01*
X233528809Y-79172523D01*
X233407857Y-79172523D01*
X233226428Y-79112047D01*
X233105476Y-78991095D01*
X233045000Y-78870142D01*
X232984523Y-78628238D01*
X232984523Y-78446809D01*
X233045000Y-78204904D01*
X233105476Y-78083952D01*
X233226428Y-77963000D01*
X233407857Y-77902523D01*
X233528809Y-77902523D01*
X233710238Y-77963000D01*
X233770714Y-78023476D01*
X234859285Y-77902523D02*
X234617380Y-77902523D01*
X234496428Y-77963000D01*
X234435952Y-78023476D01*
X234315000Y-78204904D01*
X234254523Y-78446809D01*
X234254523Y-78930619D01*
X234315000Y-79051571D01*
X234375476Y-79112047D01*
X234496428Y-79172523D01*
X234738333Y-79172523D01*
X234859285Y-79112047D01*
X234919761Y-79051571D01*
X234980238Y-78930619D01*
X234980238Y-78628238D01*
X234919761Y-78507285D01*
X234859285Y-78446809D01*
X234738333Y-78386333D01*
X234496428Y-78386333D01*
X234375476Y-78446809D01*
X234315000Y-78507285D01*
X234254523Y-78628238D01*
D19*
X229004904Y-79700380D02*
X229004904Y-78700380D01*
X229243000Y-78700380D01*
X229385857Y-78748000D01*
X229481095Y-78843238D01*
X229528714Y-78938476D01*
X229576333Y-79128952D01*
X229576333Y-79271809D01*
X229528714Y-79462285D01*
X229481095Y-79557523D01*
X229385857Y-79652761D01*
X229243000Y-79700380D01*
X229004904Y-79700380D01*
X230528714Y-79700380D02*
X229957285Y-79700380D01*
X230243000Y-79700380D02*
X230243000Y-78700380D01*
X230147761Y-78843238D01*
X230052523Y-78938476D01*
X229957285Y-78986095D01*
X226845904Y-79700380D02*
X226845904Y-78700380D01*
X227084000Y-78700380D01*
X227226857Y-78748000D01*
X227322095Y-78843238D01*
X227369714Y-78938476D01*
X227417333Y-79128952D01*
X227417333Y-79271809D01*
X227369714Y-79462285D01*
X227322095Y-79557523D01*
X227226857Y-79652761D01*
X227084000Y-79700380D01*
X226845904Y-79700380D01*
X227798285Y-78795619D02*
X227845904Y-78748000D01*
X227941142Y-78700380D01*
X228179238Y-78700380D01*
X228274476Y-78748000D01*
X228322095Y-78795619D01*
X228369714Y-78890857D01*
X228369714Y-78986095D01*
X228322095Y-79128952D01*
X227750666Y-79700380D01*
X228369714Y-79700380D01*
X247361761Y-68111619D02*
X247266523Y-68064000D01*
X247171285Y-67968761D01*
X247028428Y-67825904D01*
X246933190Y-67778285D01*
X246837952Y-67778285D01*
X246885571Y-68016380D02*
X246790333Y-67968761D01*
X246695095Y-67873523D01*
X246647476Y-67683047D01*
X246647476Y-67349714D01*
X246695095Y-67159238D01*
X246790333Y-67064000D01*
X246885571Y-67016380D01*
X247076047Y-67016380D01*
X247171285Y-67064000D01*
X247266523Y-67159238D01*
X247314142Y-67349714D01*
X247314142Y-67683047D01*
X247266523Y-67873523D01*
X247171285Y-67968761D01*
X247076047Y-68016380D01*
X246885571Y-68016380D01*
X248266523Y-68016380D02*
X247695095Y-68016380D01*
X247980809Y-68016380D02*
X247980809Y-67016380D01*
X247885571Y-67159238D01*
X247790333Y-67254476D01*
X247695095Y-67302095D01*
X241077761Y-68111619D02*
X240982523Y-68064000D01*
X240887285Y-67968761D01*
X240744428Y-67825904D01*
X240649190Y-67778285D01*
X240553952Y-67778285D01*
X240601571Y-68016380D02*
X240506333Y-67968761D01*
X240411095Y-67873523D01*
X240363476Y-67683047D01*
X240363476Y-67349714D01*
X240411095Y-67159238D01*
X240506333Y-67064000D01*
X240601571Y-67016380D01*
X240792047Y-67016380D01*
X240887285Y-67064000D01*
X240982523Y-67159238D01*
X241030142Y-67349714D01*
X241030142Y-67683047D01*
X240982523Y-67873523D01*
X240887285Y-67968761D01*
X240792047Y-68016380D01*
X240601571Y-68016380D01*
X241411095Y-67111619D02*
X241458714Y-67064000D01*
X241553952Y-67016380D01*
X241792047Y-67016380D01*
X241887285Y-67064000D01*
X241934904Y-67111619D01*
X241982523Y-67206857D01*
X241982523Y-67302095D01*
X241934904Y-67444952D01*
X241363476Y-68016380D01*
X241982523Y-68016380D01*
D16*
X243652523Y-94785142D02*
X242382523Y-94785142D01*
X242382523Y-94301333D01*
X242443000Y-94180380D01*
X242503476Y-94119904D01*
X242624428Y-94059428D01*
X242805857Y-94059428D01*
X242926809Y-94119904D01*
X242987285Y-94180380D01*
X243047761Y-94301333D01*
X243047761Y-94785142D01*
X243592047Y-93575619D02*
X243652523Y-93394190D01*
X243652523Y-93091809D01*
X243592047Y-92970857D01*
X243531571Y-92910380D01*
X243410619Y-92849904D01*
X243289666Y-92849904D01*
X243168714Y-92910380D01*
X243108238Y-92970857D01*
X243047761Y-93091809D01*
X242987285Y-93333714D01*
X242926809Y-93454666D01*
X242866333Y-93515142D01*
X242745380Y-93575619D01*
X242624428Y-93575619D01*
X242503476Y-93515142D01*
X242443000Y-93454666D01*
X242382523Y-93333714D01*
X242382523Y-93031333D01*
X242443000Y-92849904D01*
X243652523Y-91640380D02*
X243652523Y-92366095D01*
X243652523Y-92003238D02*
X242382523Y-92003238D01*
X242563952Y-92124190D01*
X242684904Y-92245142D01*
X242745380Y-92366095D01*
M02*
