G04 #@! TF.GenerationSoftware,KiCad,Pcbnew,(5.1.2)-1*
G04 #@! TF.CreationDate,2019-08-24T01:42:28-04:00*
G04 #@! TF.ProjectId,AAquad_PCB,41417175-6164-45f5-9043-422e6b696361,rev?*
G04 #@! TF.SameCoordinates,Original*
G04 #@! TF.FileFunction,Soldermask,Bot*
G04 #@! TF.FilePolarity,Negative*
%FSLAX46Y46*%
G04 Gerber Fmt 4.6, Leading zero omitted, Abs format (unit mm)*
G04 Created by KiCad (PCBNEW (5.1.2)-1) date 2019-08-24 01:42:28*
%MOMM*%
%LPD*%
G04 APERTURE LIST*
%ADD10C,1.200000*%
%ADD11C,5.400000*%
%ADD12O,2.100000X2.100000*%
%ADD13R,2.100000X2.100000*%
%ADD14R,1.400000X1.650000*%
%ADD15R,1.650000X1.400000*%
%ADD16C,0.100000*%
%ADD17C,1.375000*%
G04 APERTURE END LIST*
D10*
X214431825Y-52522175D03*
X213106000Y-51973000D03*
X211780175Y-52522175D03*
X211231000Y-53848000D03*
X211780175Y-55173825D03*
X213106000Y-55723000D03*
X214431825Y-55173825D03*
X214981000Y-53848000D03*
D11*
X213106000Y-53848000D03*
D10*
X262437825Y-52522175D03*
X261112000Y-51973000D03*
X259786175Y-52522175D03*
X259237000Y-53848000D03*
X259786175Y-55173825D03*
X261112000Y-55723000D03*
X262437825Y-55173825D03*
X262987000Y-53848000D03*
D11*
X261112000Y-53848000D03*
D10*
X262437825Y-94178175D03*
X261112000Y-93629000D03*
X259786175Y-94178175D03*
X259237000Y-95504000D03*
X259786175Y-96829825D03*
X261112000Y-97379000D03*
X262437825Y-96829825D03*
X262987000Y-95504000D03*
D11*
X261112000Y-95504000D03*
D10*
X214431825Y-94178175D03*
X213106000Y-93629000D03*
X211780175Y-94178175D03*
X211231000Y-95504000D03*
X211780175Y-96829825D03*
X213106000Y-97379000D03*
X214431825Y-96829825D03*
X214981000Y-95504000D03*
D11*
X213106000Y-95504000D03*
D12*
X262636000Y-77216000D03*
X260096000Y-77216000D03*
X262636000Y-74676000D03*
X260096000Y-74676000D03*
X262636000Y-72136000D03*
D13*
X260096000Y-72136000D03*
D12*
X211582000Y-72136000D03*
X214122000Y-72136000D03*
X211582000Y-74676000D03*
X214122000Y-74676000D03*
X211582000Y-77216000D03*
D13*
X214122000Y-77216000D03*
D14*
X246824500Y-78740000D03*
X244824500Y-78740000D03*
D15*
X229362000Y-69485000D03*
X229362000Y-71485000D03*
X220980000Y-70262500D03*
X220980000Y-68262500D03*
X240919000Y-66468500D03*
X240919000Y-64468500D03*
X238950500Y-66452500D03*
X238950500Y-64452500D03*
D14*
X245491000Y-76009500D03*
X247491000Y-76009500D03*
D15*
X243459000Y-74184000D03*
X243459000Y-76184000D03*
D12*
X226822000Y-52578000D03*
X226822000Y-55118000D03*
X224282000Y-52578000D03*
X224282000Y-55118000D03*
X221742000Y-52578000D03*
D13*
X221742000Y-55118000D03*
D12*
X238252000Y-96774000D03*
X235712000Y-96774000D03*
X238252000Y-94234000D03*
D13*
X235712000Y-94234000D03*
D16*
G36*
X238248443Y-77841655D02*
G01*
X238281812Y-77846605D01*
X238314535Y-77854802D01*
X238346297Y-77866166D01*
X238376793Y-77880590D01*
X238405727Y-77897932D01*
X238432823Y-77918028D01*
X238457818Y-77940682D01*
X238480472Y-77965677D01*
X238500568Y-77992773D01*
X238517910Y-78021707D01*
X238532334Y-78052203D01*
X238543698Y-78083965D01*
X238551895Y-78116688D01*
X238556845Y-78150057D01*
X238558500Y-78183750D01*
X238558500Y-79296250D01*
X238556845Y-79329943D01*
X238551895Y-79363312D01*
X238543698Y-79396035D01*
X238532334Y-79427797D01*
X238517910Y-79458293D01*
X238500568Y-79487227D01*
X238480472Y-79514323D01*
X238457818Y-79539318D01*
X238432823Y-79561972D01*
X238405727Y-79582068D01*
X238376793Y-79599410D01*
X238346297Y-79613834D01*
X238314535Y-79625198D01*
X238281812Y-79633395D01*
X238248443Y-79638345D01*
X238214750Y-79640000D01*
X237527250Y-79640000D01*
X237493557Y-79638345D01*
X237460188Y-79633395D01*
X237427465Y-79625198D01*
X237395703Y-79613834D01*
X237365207Y-79599410D01*
X237336273Y-79582068D01*
X237309177Y-79561972D01*
X237284182Y-79539318D01*
X237261528Y-79514323D01*
X237241432Y-79487227D01*
X237224090Y-79458293D01*
X237209666Y-79427797D01*
X237198302Y-79396035D01*
X237190105Y-79363312D01*
X237185155Y-79329943D01*
X237183500Y-79296250D01*
X237183500Y-78183750D01*
X237185155Y-78150057D01*
X237190105Y-78116688D01*
X237198302Y-78083965D01*
X237209666Y-78052203D01*
X237224090Y-78021707D01*
X237241432Y-77992773D01*
X237261528Y-77965677D01*
X237284182Y-77940682D01*
X237309177Y-77918028D01*
X237336273Y-77897932D01*
X237365207Y-77880590D01*
X237395703Y-77866166D01*
X237427465Y-77854802D01*
X237460188Y-77846605D01*
X237493557Y-77841655D01*
X237527250Y-77840000D01*
X238214750Y-77840000D01*
X238248443Y-77841655D01*
X238248443Y-77841655D01*
G37*
D17*
X237871000Y-78740000D03*
D16*
G36*
X236373443Y-77841655D02*
G01*
X236406812Y-77846605D01*
X236439535Y-77854802D01*
X236471297Y-77866166D01*
X236501793Y-77880590D01*
X236530727Y-77897932D01*
X236557823Y-77918028D01*
X236582818Y-77940682D01*
X236605472Y-77965677D01*
X236625568Y-77992773D01*
X236642910Y-78021707D01*
X236657334Y-78052203D01*
X236668698Y-78083965D01*
X236676895Y-78116688D01*
X236681845Y-78150057D01*
X236683500Y-78183750D01*
X236683500Y-79296250D01*
X236681845Y-79329943D01*
X236676895Y-79363312D01*
X236668698Y-79396035D01*
X236657334Y-79427797D01*
X236642910Y-79458293D01*
X236625568Y-79487227D01*
X236605472Y-79514323D01*
X236582818Y-79539318D01*
X236557823Y-79561972D01*
X236530727Y-79582068D01*
X236501793Y-79599410D01*
X236471297Y-79613834D01*
X236439535Y-79625198D01*
X236406812Y-79633395D01*
X236373443Y-79638345D01*
X236339750Y-79640000D01*
X235652250Y-79640000D01*
X235618557Y-79638345D01*
X235585188Y-79633395D01*
X235552465Y-79625198D01*
X235520703Y-79613834D01*
X235490207Y-79599410D01*
X235461273Y-79582068D01*
X235434177Y-79561972D01*
X235409182Y-79539318D01*
X235386528Y-79514323D01*
X235366432Y-79487227D01*
X235349090Y-79458293D01*
X235334666Y-79427797D01*
X235323302Y-79396035D01*
X235315105Y-79363312D01*
X235310155Y-79329943D01*
X235308500Y-79296250D01*
X235308500Y-78183750D01*
X235310155Y-78150057D01*
X235315105Y-78116688D01*
X235323302Y-78083965D01*
X235334666Y-78052203D01*
X235349090Y-78021707D01*
X235366432Y-77992773D01*
X235386528Y-77965677D01*
X235409182Y-77940682D01*
X235434177Y-77918028D01*
X235461273Y-77897932D01*
X235490207Y-77880590D01*
X235520703Y-77866166D01*
X235552465Y-77854802D01*
X235585188Y-77846605D01*
X235618557Y-77841655D01*
X235652250Y-77840000D01*
X236339750Y-77840000D01*
X236373443Y-77841655D01*
X236373443Y-77841655D01*
G37*
D17*
X235996000Y-78740000D03*
D16*
G36*
X238121443Y-80889655D02*
G01*
X238154812Y-80894605D01*
X238187535Y-80902802D01*
X238219297Y-80914166D01*
X238249793Y-80928590D01*
X238278727Y-80945932D01*
X238305823Y-80966028D01*
X238330818Y-80988682D01*
X238353472Y-81013677D01*
X238373568Y-81040773D01*
X238390910Y-81069707D01*
X238405334Y-81100203D01*
X238416698Y-81131965D01*
X238424895Y-81164688D01*
X238429845Y-81198057D01*
X238431500Y-81231750D01*
X238431500Y-82344250D01*
X238429845Y-82377943D01*
X238424895Y-82411312D01*
X238416698Y-82444035D01*
X238405334Y-82475797D01*
X238390910Y-82506293D01*
X238373568Y-82535227D01*
X238353472Y-82562323D01*
X238330818Y-82587318D01*
X238305823Y-82609972D01*
X238278727Y-82630068D01*
X238249793Y-82647410D01*
X238219297Y-82661834D01*
X238187535Y-82673198D01*
X238154812Y-82681395D01*
X238121443Y-82686345D01*
X238087750Y-82688000D01*
X237400250Y-82688000D01*
X237366557Y-82686345D01*
X237333188Y-82681395D01*
X237300465Y-82673198D01*
X237268703Y-82661834D01*
X237238207Y-82647410D01*
X237209273Y-82630068D01*
X237182177Y-82609972D01*
X237157182Y-82587318D01*
X237134528Y-82562323D01*
X237114432Y-82535227D01*
X237097090Y-82506293D01*
X237082666Y-82475797D01*
X237071302Y-82444035D01*
X237063105Y-82411312D01*
X237058155Y-82377943D01*
X237056500Y-82344250D01*
X237056500Y-81231750D01*
X237058155Y-81198057D01*
X237063105Y-81164688D01*
X237071302Y-81131965D01*
X237082666Y-81100203D01*
X237097090Y-81069707D01*
X237114432Y-81040773D01*
X237134528Y-81013677D01*
X237157182Y-80988682D01*
X237182177Y-80966028D01*
X237209273Y-80945932D01*
X237238207Y-80928590D01*
X237268703Y-80914166D01*
X237300465Y-80902802D01*
X237333188Y-80894605D01*
X237366557Y-80889655D01*
X237400250Y-80888000D01*
X238087750Y-80888000D01*
X238121443Y-80889655D01*
X238121443Y-80889655D01*
G37*
D17*
X237744000Y-81788000D03*
D16*
G36*
X236246443Y-80889655D02*
G01*
X236279812Y-80894605D01*
X236312535Y-80902802D01*
X236344297Y-80914166D01*
X236374793Y-80928590D01*
X236403727Y-80945932D01*
X236430823Y-80966028D01*
X236455818Y-80988682D01*
X236478472Y-81013677D01*
X236498568Y-81040773D01*
X236515910Y-81069707D01*
X236530334Y-81100203D01*
X236541698Y-81131965D01*
X236549895Y-81164688D01*
X236554845Y-81198057D01*
X236556500Y-81231750D01*
X236556500Y-82344250D01*
X236554845Y-82377943D01*
X236549895Y-82411312D01*
X236541698Y-82444035D01*
X236530334Y-82475797D01*
X236515910Y-82506293D01*
X236498568Y-82535227D01*
X236478472Y-82562323D01*
X236455818Y-82587318D01*
X236430823Y-82609972D01*
X236403727Y-82630068D01*
X236374793Y-82647410D01*
X236344297Y-82661834D01*
X236312535Y-82673198D01*
X236279812Y-82681395D01*
X236246443Y-82686345D01*
X236212750Y-82688000D01*
X235525250Y-82688000D01*
X235491557Y-82686345D01*
X235458188Y-82681395D01*
X235425465Y-82673198D01*
X235393703Y-82661834D01*
X235363207Y-82647410D01*
X235334273Y-82630068D01*
X235307177Y-82609972D01*
X235282182Y-82587318D01*
X235259528Y-82562323D01*
X235239432Y-82535227D01*
X235222090Y-82506293D01*
X235207666Y-82475797D01*
X235196302Y-82444035D01*
X235188105Y-82411312D01*
X235183155Y-82377943D01*
X235181500Y-82344250D01*
X235181500Y-81231750D01*
X235183155Y-81198057D01*
X235188105Y-81164688D01*
X235196302Y-81131965D01*
X235207666Y-81100203D01*
X235222090Y-81069707D01*
X235239432Y-81040773D01*
X235259528Y-81013677D01*
X235282182Y-80988682D01*
X235307177Y-80966028D01*
X235334273Y-80945932D01*
X235363207Y-80928590D01*
X235393703Y-80914166D01*
X235425465Y-80902802D01*
X235458188Y-80894605D01*
X235491557Y-80889655D01*
X235525250Y-80888000D01*
X236212750Y-80888000D01*
X236246443Y-80889655D01*
X236246443Y-80889655D01*
G37*
D17*
X235869000Y-81788000D03*
D16*
G36*
X238042943Y-84064655D02*
G01*
X238076312Y-84069605D01*
X238109035Y-84077802D01*
X238140797Y-84089166D01*
X238171293Y-84103590D01*
X238200227Y-84120932D01*
X238227323Y-84141028D01*
X238252318Y-84163682D01*
X238274972Y-84188677D01*
X238295068Y-84215773D01*
X238312410Y-84244707D01*
X238326834Y-84275203D01*
X238338198Y-84306965D01*
X238346395Y-84339688D01*
X238351345Y-84373057D01*
X238353000Y-84406750D01*
X238353000Y-85519250D01*
X238351345Y-85552943D01*
X238346395Y-85586312D01*
X238338198Y-85619035D01*
X238326834Y-85650797D01*
X238312410Y-85681293D01*
X238295068Y-85710227D01*
X238274972Y-85737323D01*
X238252318Y-85762318D01*
X238227323Y-85784972D01*
X238200227Y-85805068D01*
X238171293Y-85822410D01*
X238140797Y-85836834D01*
X238109035Y-85848198D01*
X238076312Y-85856395D01*
X238042943Y-85861345D01*
X238009250Y-85863000D01*
X237321750Y-85863000D01*
X237288057Y-85861345D01*
X237254688Y-85856395D01*
X237221965Y-85848198D01*
X237190203Y-85836834D01*
X237159707Y-85822410D01*
X237130773Y-85805068D01*
X237103677Y-85784972D01*
X237078682Y-85762318D01*
X237056028Y-85737323D01*
X237035932Y-85710227D01*
X237018590Y-85681293D01*
X237004166Y-85650797D01*
X236992802Y-85619035D01*
X236984605Y-85586312D01*
X236979655Y-85552943D01*
X236978000Y-85519250D01*
X236978000Y-84406750D01*
X236979655Y-84373057D01*
X236984605Y-84339688D01*
X236992802Y-84306965D01*
X237004166Y-84275203D01*
X237018590Y-84244707D01*
X237035932Y-84215773D01*
X237056028Y-84188677D01*
X237078682Y-84163682D01*
X237103677Y-84141028D01*
X237130773Y-84120932D01*
X237159707Y-84103590D01*
X237190203Y-84089166D01*
X237221965Y-84077802D01*
X237254688Y-84069605D01*
X237288057Y-84064655D01*
X237321750Y-84063000D01*
X238009250Y-84063000D01*
X238042943Y-84064655D01*
X238042943Y-84064655D01*
G37*
D17*
X237665500Y-84963000D03*
D16*
G36*
X236167943Y-84064655D02*
G01*
X236201312Y-84069605D01*
X236234035Y-84077802D01*
X236265797Y-84089166D01*
X236296293Y-84103590D01*
X236325227Y-84120932D01*
X236352323Y-84141028D01*
X236377318Y-84163682D01*
X236399972Y-84188677D01*
X236420068Y-84215773D01*
X236437410Y-84244707D01*
X236451834Y-84275203D01*
X236463198Y-84306965D01*
X236471395Y-84339688D01*
X236476345Y-84373057D01*
X236478000Y-84406750D01*
X236478000Y-85519250D01*
X236476345Y-85552943D01*
X236471395Y-85586312D01*
X236463198Y-85619035D01*
X236451834Y-85650797D01*
X236437410Y-85681293D01*
X236420068Y-85710227D01*
X236399972Y-85737323D01*
X236377318Y-85762318D01*
X236352323Y-85784972D01*
X236325227Y-85805068D01*
X236296293Y-85822410D01*
X236265797Y-85836834D01*
X236234035Y-85848198D01*
X236201312Y-85856395D01*
X236167943Y-85861345D01*
X236134250Y-85863000D01*
X235446750Y-85863000D01*
X235413057Y-85861345D01*
X235379688Y-85856395D01*
X235346965Y-85848198D01*
X235315203Y-85836834D01*
X235284707Y-85822410D01*
X235255773Y-85805068D01*
X235228677Y-85784972D01*
X235203682Y-85762318D01*
X235181028Y-85737323D01*
X235160932Y-85710227D01*
X235143590Y-85681293D01*
X235129166Y-85650797D01*
X235117802Y-85619035D01*
X235109605Y-85586312D01*
X235104655Y-85552943D01*
X235103000Y-85519250D01*
X235103000Y-84406750D01*
X235104655Y-84373057D01*
X235109605Y-84339688D01*
X235117802Y-84306965D01*
X235129166Y-84275203D01*
X235143590Y-84244707D01*
X235160932Y-84215773D01*
X235181028Y-84188677D01*
X235203682Y-84163682D01*
X235228677Y-84141028D01*
X235255773Y-84120932D01*
X235284707Y-84103590D01*
X235315203Y-84089166D01*
X235346965Y-84077802D01*
X235379688Y-84069605D01*
X235413057Y-84064655D01*
X235446750Y-84063000D01*
X236134250Y-84063000D01*
X236167943Y-84064655D01*
X236167943Y-84064655D01*
G37*
D17*
X235790500Y-84963000D03*
D16*
G36*
X238121443Y-87239655D02*
G01*
X238154812Y-87244605D01*
X238187535Y-87252802D01*
X238219297Y-87264166D01*
X238249793Y-87278590D01*
X238278727Y-87295932D01*
X238305823Y-87316028D01*
X238330818Y-87338682D01*
X238353472Y-87363677D01*
X238373568Y-87390773D01*
X238390910Y-87419707D01*
X238405334Y-87450203D01*
X238416698Y-87481965D01*
X238424895Y-87514688D01*
X238429845Y-87548057D01*
X238431500Y-87581750D01*
X238431500Y-88694250D01*
X238429845Y-88727943D01*
X238424895Y-88761312D01*
X238416698Y-88794035D01*
X238405334Y-88825797D01*
X238390910Y-88856293D01*
X238373568Y-88885227D01*
X238353472Y-88912323D01*
X238330818Y-88937318D01*
X238305823Y-88959972D01*
X238278727Y-88980068D01*
X238249793Y-88997410D01*
X238219297Y-89011834D01*
X238187535Y-89023198D01*
X238154812Y-89031395D01*
X238121443Y-89036345D01*
X238087750Y-89038000D01*
X237400250Y-89038000D01*
X237366557Y-89036345D01*
X237333188Y-89031395D01*
X237300465Y-89023198D01*
X237268703Y-89011834D01*
X237238207Y-88997410D01*
X237209273Y-88980068D01*
X237182177Y-88959972D01*
X237157182Y-88937318D01*
X237134528Y-88912323D01*
X237114432Y-88885227D01*
X237097090Y-88856293D01*
X237082666Y-88825797D01*
X237071302Y-88794035D01*
X237063105Y-88761312D01*
X237058155Y-88727943D01*
X237056500Y-88694250D01*
X237056500Y-87581750D01*
X237058155Y-87548057D01*
X237063105Y-87514688D01*
X237071302Y-87481965D01*
X237082666Y-87450203D01*
X237097090Y-87419707D01*
X237114432Y-87390773D01*
X237134528Y-87363677D01*
X237157182Y-87338682D01*
X237182177Y-87316028D01*
X237209273Y-87295932D01*
X237238207Y-87278590D01*
X237268703Y-87264166D01*
X237300465Y-87252802D01*
X237333188Y-87244605D01*
X237366557Y-87239655D01*
X237400250Y-87238000D01*
X238087750Y-87238000D01*
X238121443Y-87239655D01*
X238121443Y-87239655D01*
G37*
D17*
X237744000Y-88138000D03*
D16*
G36*
X236246443Y-87239655D02*
G01*
X236279812Y-87244605D01*
X236312535Y-87252802D01*
X236344297Y-87264166D01*
X236374793Y-87278590D01*
X236403727Y-87295932D01*
X236430823Y-87316028D01*
X236455818Y-87338682D01*
X236478472Y-87363677D01*
X236498568Y-87390773D01*
X236515910Y-87419707D01*
X236530334Y-87450203D01*
X236541698Y-87481965D01*
X236549895Y-87514688D01*
X236554845Y-87548057D01*
X236556500Y-87581750D01*
X236556500Y-88694250D01*
X236554845Y-88727943D01*
X236549895Y-88761312D01*
X236541698Y-88794035D01*
X236530334Y-88825797D01*
X236515910Y-88856293D01*
X236498568Y-88885227D01*
X236478472Y-88912323D01*
X236455818Y-88937318D01*
X236430823Y-88959972D01*
X236403727Y-88980068D01*
X236374793Y-88997410D01*
X236344297Y-89011834D01*
X236312535Y-89023198D01*
X236279812Y-89031395D01*
X236246443Y-89036345D01*
X236212750Y-89038000D01*
X235525250Y-89038000D01*
X235491557Y-89036345D01*
X235458188Y-89031395D01*
X235425465Y-89023198D01*
X235393703Y-89011834D01*
X235363207Y-88997410D01*
X235334273Y-88980068D01*
X235307177Y-88959972D01*
X235282182Y-88937318D01*
X235259528Y-88912323D01*
X235239432Y-88885227D01*
X235222090Y-88856293D01*
X235207666Y-88825797D01*
X235196302Y-88794035D01*
X235188105Y-88761312D01*
X235183155Y-88727943D01*
X235181500Y-88694250D01*
X235181500Y-87581750D01*
X235183155Y-87548057D01*
X235188105Y-87514688D01*
X235196302Y-87481965D01*
X235207666Y-87450203D01*
X235222090Y-87419707D01*
X235239432Y-87390773D01*
X235259528Y-87363677D01*
X235282182Y-87338682D01*
X235307177Y-87316028D01*
X235334273Y-87295932D01*
X235363207Y-87278590D01*
X235393703Y-87264166D01*
X235425465Y-87252802D01*
X235458188Y-87244605D01*
X235491557Y-87239655D01*
X235525250Y-87238000D01*
X236212750Y-87238000D01*
X236246443Y-87239655D01*
X236246443Y-87239655D01*
G37*
D17*
X235869000Y-88138000D03*
M02*
