M48
; DRILL file {KiCad (5.1.2)-1} date 2019-08-24 1:42:33 AM
; FORMAT={3:3/ absolute / metric / suppress leading zeros}
; #@! TF.CreationDate,2019-08-24T01:42:33-04:00
; #@! TF.GenerationSoftware,Kicad,Pcbnew,(5.1.2)-1
; #@! TF.FileFunction,Plated,1,2,PTH
FMAT,2
METRIC,TZ
T1C0.400
T2C0.500
T3C1.000
T4C2.500
%
G90
G05
T1
X214376Y-65786
X215773Y-89916
X219329Y-68263
X219456Y-69723
X220980Y-89916
X223203Y-75375
X223647Y-71882
X223709Y-76708
X224028Y-63627
X224536Y-68326
X224536Y-71577
X225552Y-66802
X225679Y-71069
X226314Y-76708
X226632Y-91504
X226695Y-70485
X227584Y-89662
X227725Y-91807
X227878Y-68874
X228600Y-62040
X229299Y-64135
X229362Y-73025
X229616Y-76708
X229743Y-65024
X229743Y-89662
X231140Y-67310
X231267Y-73216
X231648Y-68834
X231775Y-75692
X231775Y-87249
X232664Y-75057
X232664Y-75057
X232664Y-84074
X233045Y-61722
X233299Y-74168
X233299Y-81915
X234188Y-67310
X234188Y-69977
X234188Y-79248
X234569Y-84074
X234696Y-77724
X234696Y-78613
X234696Y-80899
X234696Y-81788
X234696Y-84963
X234696Y-87249
X234696Y-88138
X237500Y-63881
X239001Y-86106
X239014Y-82893
X239014Y-88138
X239014Y-89154
X239141Y-79248
X241173Y-82804
X241427Y-62230
X241490Y-63119
X241554Y-61087
X241935Y-76200
X241935Y-85598
X242570Y-87757
X243205Y-79248
X243523Y-83757
X243656Y-84582
X243713Y-55499
X243713Y-61341
X244856Y-77470
X246126Y-77470
X248158Y-87122
X248730Y-76010
X248856Y-81534
X249936Y-88392
X249936Y-91821
X251079Y-90170
X254254Y-94107
T2
X211231Y-53848
X211780Y-52522
X211780Y-55174
X213106Y-51973
X213106Y-55723
X214432Y-52522
X214432Y-55174
X214981Y-53848
X211231Y-95504
X211780Y-94178
X211780Y-96830
X213106Y-93629
X213106Y-97379
X214432Y-94178
X214432Y-96830
X214981Y-95504
X259237Y-95504
X259786Y-94178
X259786Y-96830
X261112Y-93629
X261112Y-97379
X262438Y-94178
X262438Y-96830
X262987Y-95504
X259237Y-53848
X259786Y-52522
X259786Y-55174
X261112Y-51973
X261112Y-55723
X262438Y-52522
X262438Y-55174
X262987Y-53848
T3
X221742Y-52578
X221742Y-55118
X224282Y-52578
X224282Y-55118
X226822Y-52578
X226822Y-55118
X211582Y-72136
X211582Y-74676
X211582Y-77216
X214122Y-72136
X214122Y-74676
X214122Y-77216
X235712Y-94234
X235712Y-96774
X238252Y-94234
X238252Y-96774
X260096Y-72136
X260096Y-74676
X260096Y-77216
X262636Y-72136
X262636Y-74676
X262636Y-77216
T4
X213106Y-53848
X213106Y-95504
X261112Y-95504
X261112Y-53848
T0
M30
